  0
SECTION
  2
HEADER
  9
$ACADVER
  1
AC1015
  9
$ACADMAINTVER
 70
     6
  9
$DWGCODEPAGE
  3
ANSI_936
  9
$INSBASE
 10
0.0
 20
0.0
 30
0.0
  9
$EXTMIN
 10
0.0
 20
0.0
 30
0.0
  9
$EXTMAX
 10
594.5
 20
420.5
 30
0.0
  9
$LIMMIN
 10
0.0
 20
0.0
  9
$LIMMAX
 10
594.5
 20
420.5
  9
$ORTHOMODE
 70
     0
  9
$REGENMODE
 70
     1
  9
$FILLMODE
 70
     1
  9
$QTEXTMODE
 70
     0
  9
$MIRRTEXT
 70
     1
  9
$LTSCALE
 40
0.5
  9
$ATTMODE
 70
     1
  9
$TEXTSIZE
 40
1.75
  9
$TRACEWID
 40
1.0
  9
$TEXTSTYLE
  7
Standard
  9
$CLAYER
  8
0
  9
$CELTYPE
  6
ByLayer
  9
$CECOLOR
 62
   256
  9
$CELTSCALE
 40
1.0
  9
$DISPSILH
 70
     0
  9
$DIMSCALE
 40
1.0
  9
$DIMASZ
 40
2.04
  9
$DIMEXO
 40
0.0
  9
$DIMDLI
 40
3.75
  9
$DIMRND
 40
0.0
  9
$DIMDLE
 40
0.0
  9
$DIMEXE
 40
1.0
  9
$DIMTP
 40
0.0
  9
$DIMTM
 40
0.0
  9
$DIMTXT
 40
1.75
  9
$DIMCEN
 40
2.5
  9
$DIMTSZ
 40
0.0
  9
$DIMTOL
 70
     0
  9
$DIMLIM
 70
     0
  9
$DIMTIH
 70
     1
  9
$DIMTOH
 70
     1
  9
$DIMSE1
 70
     0
  9
$DIMSE2
 70
     0
  9
$DIMTAD
 70
     1
  9
$DIMZIN
 70
     0
  9
$DIMBLK
  1

  9
$DIMASO
 70
     1
  9
$DIMSHO
 70
     1
  9
$DIMPOST
  1

  9
$DIMAPOST
  1

  9
$DIMALT
 70
     0
  9
$DIMALTD
 70
     3
  9
$DIMALTF
 40
0.0393700787
  9
$DIMLFAC
 40
1.0
  9
$DIMTOFL
 70
     1
  9
$DIMTVP
 40
0.0
  9
$DIMTIX
 70
     0
  9
$DIMSOXD
 70
     0
  9
$DIMSAH
 70
     0
  9
$DIMBLK1
  1

  9
$DIMBLK2
  1

  9
$DIMSTYLE
  2
ISO-25
  9
$DIMCLRD
 70
     0
  9
$DIMCLRE
 70
     0
  9
$DIMCLRT
 70
     0
  9
$DIMTFAC
 40
1.0
  9
$DIMGAP
 40
0.762
  9
$DIMJUST
 70
     0
  9
$DIMSD1
 70
     0
  9
$DIMSD2
 70
     0
  9
$DIMTOLJ
 70
     0
  9
$DIMTZIN
 70
     0
  9
$DIMALTZ
 70
     0
  9
$DIMALTTZ
 70
     0
  9
$DIMUPT
 70
     0
  9
$DIMDEC
 70
     2
  9
$DIMTDEC
 70
     2
  9
$DIMALTU
 70
     2
  9
$DIMALTTD
 70
     3
  9
$DIMTXSTY
  7
Standard
  9
$DIMAUNIT
 70
     0
  9
$DIMADEC
 70
     2
  9
$DIMALTRND
 40
0.0
  9
$DIMAZIN
 70
     0
  9
$DIMDSEP
 70
    44
  9
$DIMATFIT
 70
     3
  9
$DIMFRAC
 70
     0
  9
$DIMLDRBLK
  1

  9
$DIMLUNIT
 70
     2
  9
$DIMLWD
 70
    -2
  9
$DIMLWE
 70
    -2
  9
$DIMTMOVE
 70
     0
  9
$LUNITS
 70
     2
  9
$LUPREC
 70
     2
  9
$SKETCHINC
 40
1.0
  9
$FILLETRAD
 40
10.0
  9
$AUNITS
 70
     0
  9
$AUPREC
 70
     2
  9
$MENU
  1
.
  9
$ELEVATION
 40
0.0
  9
$PELEVATION
 40
0.0
  9
$THICKNESS
 40
0.0
  9
$LIMCHECK
 70
     0
  9
$CHAMFERA
 40
0.0
  9
$CHAMFERB
 40
0.0
  9
$CHAMFERC
 40
0.0
  9
$CHAMFERD
 40
0.0
  9
$SKPOLY
 70
     0
  9
$TDCREATE
 40
2459924.00932838
  9
$TDUCREATE
 40
2459923.675995046
  9
$TDUPDATE
 40
2459924.009335856
  9
$TDUUPDATE
 40
2459923.676002523
  9
$TDINDWG
 40
0.0000000116
  9
$TDUSRTIMER
 40
0.0000000116
  9
$USRTIMER
 70
     1
  9
$ANGBASE
 50
0.0
  9
$ANGDIR
 70
     0
  9
$PDMODE
 70
     0
  9
$PDSIZE
 40
-1.0
  9
$PLINEWID
 40
0.0
  9
$SPLFRAME
 70
     0
  9
$SPLINETYPE
 70
     6
  9
$SPLINESEGS
 70
     8
  9
$HANDSEED
  5
299
  9
$SURFTAB1
 70
     6
  9
$SURFTAB2
 70
     6
  9
$SURFTYPE
 70
     6
  9
$SURFU
 70
     6
  9
$SURFV
 70
     6
  9
$UCSBASE
  2

  9
$UCSNAME
  2

  9
$UCSORG
 10
0.0
 20
0.0
 30
0.0
  9
$UCSXDIR
 10
1.0
 20
0.0
 30
0.0
  9
$UCSYDIR
 10
0.0
 20
1.0
 30
0.0
  9
$UCSORTHOREF
  2

  9
$UCSORTHOVIEW
 70
     0
  9
$UCSORGTOP
 10
0.0
 20
0.0
 30
0.0
  9
$UCSORGBOTTOM
 10
0.0
 20
0.0
 30
0.0
  9
$UCSORGLEFT
 10
0.0
 20
0.0
 30
0.0
  9
$UCSORGRIGHT
 10
0.0
 20
0.0
 30
0.0
  9
$UCSORGFRONT
 10
0.0
 20
0.0
 30
0.0
  9
$UCSORGBACK
 10
0.0
 20
0.0
 30
0.0
  9
$PUCSBASE
  2

  9
$PUCSNAME
  2

  9
$PUCSORG
 10
0.0
 20
0.0
 30
0.0
  9
$PUCSXDIR
 10
1.0
 20
0.0
 30
0.0
  9
$PUCSYDIR
 10
0.0
 20
1.0
 30
0.0
  9
$PUCSORTHOREF
  2

  9
$PUCSORTHOVIEW
 70
     0
  9
$PUCSORGTOP
 10
0.0
 20
0.0
 30
0.0
  9
$PUCSORGBOTTOM
 10
0.0
 20
0.0
 30
0.0
  9
$PUCSORGLEFT
 10
0.0
 20
0.0
 30
0.0
  9
$PUCSORGRIGHT
 10
0.0
 20
0.0
 30
0.0
  9
$PUCSORGFRONT
 10
0.0
 20
0.0
 30
0.0
  9
$PUCSORGBACK
 10
0.0
 20
0.0
 30
0.0
  9
$USERI1
 70
     0
  9
$USERI2
 70
     0
  9
$USERI3
 70
     0
  9
$USERI4
 70
     0
  9
$USERI5
 70
     0
  9
$USERR1
 40
0.0
  9
$USERR2
 40
0.0
  9
$USERR3
 40
0.0
  9
$USERR4
 40
0.0
  9
$USERR5
 40
0.0
  9
$WORLDVIEW
 70
     1
  9
$SHADEDGE
 70
     3
  9
$SHADEDIF
 70
    70
  9
$TILEMODE
 70
     1
  9
$MAXACTVP
 70
    64
  9
$PINSBASE
 10
0.0
 20
0.0
 30
0.0
  9
$PLIMCHECK
 70
     0
  9
$PEXTMIN
 10
1.0000000000E+20
 20
1.0000000000E+20
 30
1.0000000000E+20
  9
$PEXTMAX
 10
-1.0000000000E+20
 20
-1.0000000000E+20
 30
-1.0000000000E+20
  9
$PLIMMIN
 10
0.0
 20
0.0
  9
$PLIMMAX
 10
420.0
 20
297.0
  9
$UNITMODE
 70
     0
  9
$VISRETAIN
 70
     1
  9
$PLINEGEN
 70
     0
  9
$PSLTSCALE
 70
     1
  9
$TREEDEPTH
 70
  3020
  9
$CMLSTYLE
  2
Standard
  9
$CMLJUST
 70
     0
  9
$CMLSCALE
 40
20.0
  9
$PROXYGRAPHICS
 70
     1
  9
$MEASUREMENT
 70
     1
  9
$CELWEIGHT
370
    -1
  9
$ENDCAPS
280
     0
  9
$JOINSTYLE
280
     0
  9
$LWDISPLAY
290
     1
  9
$INSUNITS
 70
     4
  9
$HYPERLINKBASE
  1

  9
$STYLESHEET
  1

  9
$XEDIT
290
     1
  9
$CEPSNTYPE
380
     0
  9
$PSTYLEMODE
290
     1
  9
$FINGERPRINTGUID
  2
{62F820FC-BFA4-4292-B97F-F5A3589BD114}
  9
$VERSIONGUID
  2
{FAEB1C32-E019-11D5-929B-00C0DF256EC4}
  9
$EXTNAMES
290
     1
  9
$PSVPSCALE
 40
0.0
  9
$OLESTARTUP
290
     0
  0
ENDSEC
  0
SECTION
  2
CLASSES
  0
CLASS
  1
ACDBDICTIONARYWDFLT
  2
AcDbDictionaryWithDefault
  3
ObjectDBX Classes
 90
        0
280
     0
281
     0
  0
CLASS
  1
VISUALSTYLE
  2
AcDbVisualStyle
  3
ObjectDBX Classes
 90
     4095
280
     0
281
     0
  0
CLASS
  1
MATERIAL
  2
AcDbMaterial
  3
ObjectDBX Classes
 90
     1153
280
     0
281
     0
  0
CLASS
  1
SCALE
  2
AcDbScale
  3
ObjectDBX Classes
 90
     1153
280
     0
281
     0
  0
CLASS
  1
TABLESTYLE
  2
AcDbTableStyle
  3
ObjectDBX Classes
 90
     4095
280
     0
281
     0
  0
CLASS
  1
MLEADERSTYLE
  2
AcDbMLeaderStyle
  3
ACDB_MLEADERSTYLE_CLASS
 90
     4095
280
     0
281
     0
  0
CLASS
  1
SUN
  2
AcDbSun
  3
SCENEOE
 90
     1153
280
     0
281
     0
  0
CLASS
  1
ACDBPLACEHOLDER
  2
AcDbPlaceHolder
  3
ObjectDBX Classes
 90
        0
280
     0
281
     0
  0
CLASS
  1
LAYOUT
  2
AcDbLayout
  3
ObjectDBX Classes
 90
        0
280
     0
281
     0
  0
ENDSEC
  0
SECTION
  2
TABLES
  0
TABLE
  2
VPORT
  5
8
330
0
100
AcDbSymbolTable
 70
     1
  0
VPORT
  5
29
330
8
100
AcDbSymbolTableRecord
100
AcDbViewportTableRecord
  2
*Active
 70
     0
 10
0.0
 20
0.0
 11
1.0
 21
1.0
 12
297.25
 22
210.25
 13
0.0
 23
0.0
 14
10.0
 24
10.0
 15
10.0
 25
10.0
 16
0.0
 26
0.0
 36
1.0
 17
0.0
 27
0.0
 37
0.0
 40
420.5
 41
1.4137931034
 42
50.0
 43
0.0
 44
0.0
 50
0.0
 51
0.0
 71
     0
 72
  2000
 73
     1
 74
     3
 75
     0
 76
     0
 77
     0
 78
     0
281
     0
 65
     1
110
0.0
120
0.0
130
0.0
111
1.0
121
0.0
131
0.0
112
0.0
122
1.0
132
0.0
 79
     0
146
0.0
  0
ENDTAB
  0
TABLE
  2
LTYPE
  5
5
330
0
100
AcDbSymbolTable
 70
     6
  0
LTYPE
  5
14
330
5
100
AcDbSymbolTableRecord
100
AcDbLinetypeTableRecord
  2
ByBlock
 70
     0
  3

 72
    65
 73
     0
 40
0.0
  0
LTYPE
  5
15
330
5
100
AcDbSymbolTableRecord
100
AcDbLinetypeTableRecord
  2
ByLayer
 70
     0
  3

 72
    65
 73
     0
 40
0.0
  0
LTYPE
  5
16
330
5
100
AcDbSymbolTableRecord
100
AcDbLinetypeTableRecord
  2
Continuous
 70
     0
  3
Solid line
 72
    65
 73
     0
 40
0.0
  0
LTYPE
  5
6E
330
5
100
AcDbSymbolTableRecord
100
AcDbLinetypeTableRecord
  2
HIDDEN
 70
     0
  3
Hidden __ __ __ __ __ __ __ __ __ __ __ __ __ __
 72
    65
 73
     2
 40
1.905
 49
1.27
 74
     0
 49
-0.635
 74
     0
  0
LTYPE
  5
6F
330
5
100
AcDbSymbolTableRecord
100
AcDbLinetypeTableRecord
  2
PHANTOM
 70
     0
  3
Phantom ______  __  __  ______  __  __  ______
 72
    65
 73
     6
 40
12.7
 49
6.35
 74
     0
 49
-1.27
 74
     0
 49
1.27
 74
     0
 49
-1.27
 74
     0
 49
1.27
 74
     0
 49
-1.27
 74
     0
  0
LTYPE
  5
70
330
5
100
AcDbSymbolTableRecord
100
AcDbLinetypeTableRecord
  2
CENTER
 70
     0
  3
Center ____ _ ____ _ ____ _ ____ _ ____ _ ____
 72
    65
 73
     4
 40
10.16
 49
6.35
 74
     0
 49
-1.27
 74
     0
 49
1.27
 74
     0
 49
-1.27
 74
     0
  0
LTYPE
  5
71
330
5
100
AcDbSymbolTableRecord
100
AcDbLinetypeTableRecord
  2
CENTERX2
 70
     0
  3
Center (2x) ________  __  ________  __  _____
 72
    65
 73
     4
 40
20.32
 49
12.7
 74
     0
 49
-2.54
 74
     0
 49
2.54
 74
     0
 49
-2.54
 74
     0
  0
LTYPE
  5
72
330
5
100
AcDbSymbolTableRecord
100
AcDbLinetypeTableRecord
  2
DOT2
 70
     0
  3
Dot (.5x) ........................................
 72
    65
 73
     2
 40
0.635
 49
0.0
 74
     0
 49
-0.635
 74
     0
  0
ENDTAB
  0
TABLE
  2
LAYER
  5
2
330
0
100
AcDbSymbolTable
 70
     1
  0
LAYER
  5
10
330
2
100
AcDbSymbolTableRecord
100
AcDbLayerTableRecord
  2
0
 70
     0
 62
     7
  6
Continuous
370
    -3
390
F
  0
ENDTAB
  0
TABLE
  2
STYLE
  5
3
330
0
100
AcDbSymbolTable
 70
     7
  0
STYLE
  5
11
330
3
100
AcDbSymbolTableRecord
100
AcDbTextStyleTableRecord
  2
Standard
 70
     0
 40
0.0
 41
1.0
 50
0.0
 71
     0
 42
1.75
  3
txt
  4

  0
STYLE
  5
228
330
3
100
AcDbSymbolTableRecord
100
AcDbTextStyleTableRecord
  2
SLDTEXTSTYLE0
 70
     0
 40
0.0
 41
0.7
 50
0.0
 71
     0
 42
1.75
  3
TXT
  4
bigfont
  0
STYLE
  5
22E
330
3
100
AcDbSymbolTableRecord
100
AcDbTextStyleTableRecord
  2
SLDTEXTSTYLE1
 70
     0
 40
0.0
 41
0.6
 50
0.0
 71
     0
 42
1.75
  3
TXT
  4
bigfont
  0
STYLE
  5
233
330
3
100
AcDbSymbolTableRecord
100
AcDbTextStyleTableRecord
  2
SLDTEXTSTYLE2
 70
     0
 40
0.0
 41
0.6142857143
 50
0.0
 71
     0
 42
1.75
  3
TXT
  4
bigfont
  0
STYLE
  5
235
330
3
100
AcDbSymbolTableRecord
100
AcDbTextStyleTableRecord
  2
SLDTEXTSTYLE3
 70
     0
 40
0.0
 41
0.62
 50
0.0
 71
     0
 42
1.75
  3
TXT
  4
bigfont
  0
STYLE
  5
23F
330
3
100
AcDbSymbolTableRecord
100
AcDbTextStyleTableRecord
  2
SLDTEXTSTYLE4
 70
     0
 40
0.0
 41
0.5666666667
 50
0.0
 71
     0
 42
1.75
  3
TXT
  4
bigfont
  0
STYLE
  5
247
330
3
100
AcDbSymbolTableRecord
100
AcDbTextStyleTableRecord
  2
SLDTEXTSTYLE5
 70
     0
 40
0.0
 41
0.7
 50
0.0
 71
     0
 42
1.75
  3
TXT
  4

  0
ENDTAB
  0
TABLE
  2
VIEW
  5
6
330
0
100
AcDbSymbolTable
 70
     0
  0
ENDTAB
  0
TABLE
  2
UCS
  5
7
330
0
100
AcDbSymbolTable
 70
     0
  0
ENDTAB
  0
TABLE
  2
APPID
  5
9
330
0
100
AcDbSymbolTable
 70
     1
  0
APPID
  5
12
330
9
100
AcDbSymbolTableRecord
100
AcDbRegAppTableRecord
  2
ACAD
 70
     0
  0
ENDTAB
  0
TABLE
  2
DIMSTYLE
  5
A
330
0
100
AcDbSymbolTable
 70
     1
100
AcDbDimStyleTable
  0
DIMSTYLE
105
27
330
A
100
AcDbSymbolTableRecord
100
AcDbDimStyleTableRecord
  2
ISO-25
 70
     0
 41
2.5
 42
0.625
 43
3.75
 44
1.25
 73
     0
 74
     0
 77
     1
 78
     8
140
2.5
141
2.5
143
0.0393700787
147
0.625
171
     3
172
     1
178
     0
271
     2
272
     2
274
     3
278
    44
283
     0
284
     8
340
11
  0
ENDTAB
  0
TABLE
  2
BLOCK_RECORD
  5
1
330
0
100
AcDbSymbolTable
 70
     1
  0
BLOCK_RECORD
  5
1F
330
1
100
AcDbSymbolTableRecord
100
AcDbBlockTableRecord
  2
*Model_Space
340
22
  0
BLOCK_RECORD
  5
1B
330
1
100
AcDbSymbolTableRecord
100
AcDbBlockTableRecord
  2
*Paper_Space
340
1E
  0
BLOCK_RECORD
  5
23
330
1
100
AcDbSymbolTableRecord
100
AcDbBlockTableRecord
  2
*Paper_Space0
340
26
  0
ENDTAB
  0
ENDSEC
  0
SECTION
  2
BLOCKS
  0
BLOCK
  5
20
330
1F
100
AcDbEntity
  8
0
100
AcDbBlockBegin
  2
*Model_Space
 70
     0
 10
0.0
 20
0.0
 30
0.0
  3
*Model_Space
  1

  0
ENDBLK
  5
21
330
1F
100
AcDbEntity
  8
0
100
AcDbBlockEnd
  0
BLOCK
  5
1C
330
1B
100
AcDbEntity
 67
     1
  8
0
100
AcDbBlockBegin
  2
*Paper_Space
 70
     0
 10
0.0
 20
0.0
 30
0.0
  3
*Paper_Space
  1

  0
ENDBLK
  5
1D
330
1B
100
AcDbEntity
 67
     1
  8
0
100
AcDbBlockEnd
  0
BLOCK
  5
24
330
23
100
AcDbEntity
  8
0
100
AcDbBlockBegin
  2
*Paper_Space0
 70
     0
 10
0.0
 20
0.0
 30
0.0
  3
*Paper_Space0
  1

  0
ENDBLK
  5
25
330
23
100
AcDbEntity
  8
0
100
AcDbBlockEnd
  0
ENDSEC
  0
SECTION
  2
ENTITIES
  0
LINE
  5
73
330
1F
100
AcDbEntity
  8
0
  6
Continuous
 62
     7
370
    18
100
AcDbLine
 10
173.7379400723
 20
250.9537898009
 30
0.0
 11
167.7379400723
 21
250.9537898009
 31
0.0
  0
LINE
  5
74
330
1F
100
AcDbEntity
  8
0
  6
Continuous
 62
     7
370
    18
100
AcDbLine
 10
398.3379400723
 20
316.6023418827
 30
0.0
 11
165.0379400723
 21
316.6023418827
 31
0.0
  0
LINE
  5
75
330
1F
100
AcDbEntity
  8
0
  6
Continuous
 62
     7
370
    18
100
AcDbLine
 10
440.7759423969
 20
274.4042898009
 30
0.0
 11
440.7759423969
 21
126.4042898009
 31
0.0
  0
LINE
  5
76
330
1F
100
AcDbEntity
  8
0
  6
Continuous
 62
   179
370
    25
100
AcDbLine
 10
136.3979068761
 20
192.7203398009
 30
0.0
 11
136.3979068761
 21
175.5203398009
 31
0.0
  0
LINE
  5
77
330
1F
100
AcDbEntity
  8
0
  6
Continuous
 62
     7
370
    18
100
AcDbLine
 10
190.0379400723
 20
297.9023418827
 30
0.0
 11
190.0379400723
 21
300.6023418827
 31
0.0
  0
LINE
  5
78
330
1F
100
AcDbEntity
  8
0
  6
Continuous
 62
   179
370
    25
100
AcDbLine
 10
131.7979068761
 20
196.6410398009
 30
0.0
 11
131.7979068761
 21
207.5410398009
 31
0.0
  0
LINE
  5
79
330
1F
100
AcDbEntity
  8
0
  6
Continuous
 62
   179
370
    25
100
AcDbLine
 10
136.2979068761
 20
196.6410398009
 30
0.0
 11
131.7979068761
 21
196.6410398009
 31
0.0
  0
LINE
  5
7A
330
1F
100
AcDbEntity
  8
0
  6
Continuous
 62
   179
370
    25
100
AcDbLine
 10
136.2979068761
 20
207.5410398009
 30
0.0
 11
136.2979068761
 21
196.6410398009
 31
0.0
  0
LINE
  5
7B
330
1F
100
AcDbEntity
  8
0
  6
Continuous
 62
     7
370
    18
100
AcDbLine
 10
173.7379400723
 20
230.1537898009
 30
0.0
 11
165.0379400723
 21
230.1537898009
 31
0.0
  0
LINE
  5
7C
330
1F
100
AcDbEntity
  8
0
  6
Continuous
 62
     7
370
    18
100
AcDbLine
 10
124.8979068761
 20
274.4042898009
 30
0.0
 11
124.8979068761
 21
126.4042898009
 31
0.0
  0
LINE
  5
7D
330
1F
100
AcDbEntity
  8
0
  6
Continuous
 62
     7
370
    18
100
AcDbLine
 10
165.0379400723
 20
230.1537898009
 30
0.0
 11
165.0379400723
 21
207.7042898009
 31
0.0
  0
LINE
  5
7E
330
1F
100
AcDbEntity
  8
0
  6
Continuous
 62
   179
370
    25
100
AcDbLine
 10
129.7979068761
 20
175.5203398009
 30
0.0
 11
129.7979068761
 21
192.7203398009
 31
0.0
  0
LINE
  5
7F
330
1F
100
AcDbEntity
  8
0
  6
Continuous
 62
     7
370
    18
100
AcDbLine
 10
122.0594111222
 20
267.7547876367
 30
0.0
 11
122.0594111222
 21
267.8553981979
 31
0.0
  0
LINE
  5
80
330
1F
100
AcDbEntity
  8
0
  6
Continuous
 62
     7
370
    18
100
AcDbLine
 10
131.7979068761
 20
250.9537898009
 30
0.0
 11
143.5979068761
 21
250.9537898009
 31
0.0
  0
LINE
  5
81
330
1F
100
AcDbEntity
  8
0
  6
Continuous
 62
     7
370
    18
100
AcDbLine
 10
131.7979068761
 20
230.1537898009
 30
0.0
 11
140.8979068761
 21
230.1537898009
 31
0.0
  0
LINE
  5
82
330
1F
100
AcDbEntity
  8
0
  6
Continuous
 62
     7
370
    18
100
AcDbLine
 10
143.5979068761
 20
207.7042898009
 30
0.0
 11
143.5979068761
 21
186.7042898009
 31
0.0
  0
LINE
  5
83
330
1F
100
AcDbEntity
  8
0
  6
Continuous
 62
   179
370
    25
100
AcDbLine
 10
131.7979068761
 20
230.1537898009
 30
0.0
 11
131.7979068761
 21
250.9537898009
 31
0.0
  0
LINE
  5
84
330
1F
100
AcDbEntity
  8
0
  6
Continuous
 62
   179
370
    25
100
AcDbLine
 10
136.2979068761
 20
225.8174298009
 30
0.0
 11
136.2979068761
 21
214.9174298009
 31
0.0
  0
LINE
  5
85
330
1F
100
AcDbEntity
  8
0
  6
Continuous
 62
   179
370
    25
100
AcDbLine
 10
131.7979068761
 20
225.8174298009
 30
0.0
 11
136.2979068761
 21
225.8174298009
 31
0.0
  0
LINE
  5
86
330
1F
100
AcDbEntity
  8
0
  6
Continuous
 62
   179
370
    25
100
AcDbLine
 10
131.7979068761
 20
214.9174298009
 30
0.0
 11
131.7979068761
 21
225.8174298009
 31
0.0
  0
LINE
  5
87
330
1F
100
AcDbEntity
  8
0
  6
Continuous
 62
   179
370
    25
100
AcDbLine
 10
136.2979068761
 20
214.9174298009
 30
0.0
 11
131.7979068761
 21
214.9174298009
 31
0.0
  0
LINE
  5
88
330
1F
100
AcDbEntity
  8
0
  6
Continuous
 62
   179
370
    25
100
AcDbLine
 10
131.7979068761
 20
207.5410398009
 30
0.0
 11
136.2979068761
 21
207.5410398009
 31
0.0
  0
LINE
  5
89
330
1F
100
AcDbEntity
  8
0
  6
Continuous
 62
   179
370
    25
100
AcDbLine
 10
129.7979068761
 20
192.7203398009
 30
0.0
 11
136.3979068761
 21
192.7203398009
 31
0.0
  0
LINE
  5
8A
330
1F
100
AcDbEntity
  8
0
  6
Continuous
 62
   179
370
    25
100
AcDbLine
 10
136.3979068761
 20
175.5203398009
 30
0.0
 11
129.7979068761
 21
175.5203398009
 31
0.0
  0
LINE
  5
8B
330
1F
100
AcDbEntity
  8
0
  6
Continuous
 62
     7
370
    18
100
AcDbLine
 10
140.8979068761
 20
277.1042898009
 30
0.0
 11
140.8979068761
 21
263.9537898009
 31
0.0
  0
LINE
  5
8C
330
1F
100
AcDbEntity
  8
0
  6
Continuous
 62
     7
370
    18
100
AcDbLine
 10
167.7379400723
 20
263.9537898009
 30
0.0
 11
167.7379400723
 21
250.9537898009
 31
0.0
  0
LINE
  5
8D
330
1F
100
AcDbEntity
  8
0
  6
Continuous
 62
     7
370
    18
100
AcDbLine
 10
165.0379400723
 20
263.9537898009
 30
0.0
 11
167.7379400723
 21
263.9537898009
 31
0.0
  0
LINE
  5
8E
330
1F
100
AcDbEntity
  8
0
  6
Continuous
 62
     7
370
    18
100
AcDbLine
 10
140.8979068761
 20
165.7042898009
 30
0.0
 11
143.5979068761
 21
165.7042898009
 31
0.0
  0
LINE
  5
8F
330
1F
100
AcDbEntity
  8
0
  6
Continuous
 62
     7
370
    18
100
AcDbLine
 10
165.0379400723
 20
144.7042898009
 30
0.0
 11
165.0379400723
 21
123.7042898009
 31
0.0
  0
LINE
  5
90
330
1F
100
AcDbEntity
  8
0
  6
Continuous
 62
     7
370
    18
100
AcDbLine
 10
140.8979068761
 20
144.7042898009
 30
0.0
 11
143.5979068761
 21
144.7042898009
 31
0.0
  0
LINE
  5
91
330
1F
100
AcDbEntity
  8
0
  6
Continuous
 62
     7
370
    18
100
AcDbLine
 10
167.7379400723
 20
165.7042898009
 30
0.0
 11
167.7379400723
 21
144.7042898009
 31
0.0
  0
LINE
  5
92
330
1F
100
AcDbEntity
  8
0
  6
Continuous
 62
     7
370
    18
100
AcDbLine
 10
140.8979068761
 20
207.7042898009
 30
0.0
 11
143.5979068761
 21
207.7042898009
 31
0.0
  0
LINE
  5
93
330
1F
100
AcDbEntity
  8
0
  6
Continuous
 62
     7
370
    18
100
AcDbLine
 10
398.3379400723
 20
308.6023418827
 30
0.0
 11
398.3379400723
 21
316.6023418827
 31
0.0
  0
LINE
  5
94
330
1F
100
AcDbEntity
  8
0
  6
Continuous
 62
     7
370
    18
100
AcDbLine
 10
165.0379400723
 20
277.1042898009
 30
0.0
 11
190.0379400723
 21
277.1042898009
 31
0.0
  0
LINE
  5
95
330
1F
100
AcDbEntity
  8
0
  6
Continuous
 62
     7
370
    18
100
AcDbLine
 10
165.0379400723
 20
277.1042898009
 30
0.0
 11
165.0379400723
 21
263.9537898009
 31
0.0
  0
LINE
  5
96
330
1F
100
AcDbEntity
  8
0
  6
Continuous
 62
     7
370
    18
100
AcDbLine
 10
165.0379400723
 20
123.7042898009
 30
0.0
 11
190.0379400723
 21
123.7042898009
 31
0.0
  0
LINE
  5
97
330
1F
100
AcDbEntity
  8
0
  6
Continuous
 62
     7
370
    18
100
AcDbLine
 10
398.3379400723
 20
277.1042898009
 30
0.0
 11
398.3379400723
 21
263.9537898009
 31
0.0
  0
LINE
  5
98
330
1F
100
AcDbEntity
  8
0
  6
Continuous
 62
     7
370
    18
100
AcDbLine
 10
215.0379400723
 20
297.9023418827
 30
0.0
 11
215.0379400723
 21
300.6023418827
 31
0.0
  0
LINE
  5
99
330
1F
100
AcDbEntity
  8
0
  6
Continuous
 62
     7
370
    18
100
AcDbLine
 10
240.0379400723
 20
297.9023418827
 30
0.0
 11
240.0379400723
 21
300.6023418827
 31
0.0
  0
LINE
  5
9A
330
1F
100
AcDbEntity
  8
0
  6
Continuous
 62
     7
370
    18
100
AcDbLine
 10
165.0379400723
 20
308.6023418827
 30
0.0
 11
165.0379400723
 21
316.6023418827
 31
0.0
  0
LINE
  5
9B
330
1F
100
AcDbEntity
  8
0
  6
Continuous
 62
     7
370
    18
100
AcDbLine
 10
140.8979068761
 20
277.1042898009
 30
0.0
 11
132.8979068761
 21
277.1042898009
 31
0.0
  0
LINE
  5
9C
330
1F
100
AcDbEntity
  8
0
  6
Continuous
 62
     7
370
    18
100
AcDbLine
 10
424.7759423969
 20
277.1042898009
 30
0.0
 11
432.7759423969
 21
277.1042898009
 31
0.0
  0
LINE
  5
9D
330
1F
100
AcDbEntity
  8
0
  6
Continuous
 62
     7
370
    18
100
AcDbLine
 10
140.8979068761
 20
123.7042898009
 30
0.0
 11
132.8979068761
 21
123.7042898009
 31
0.0
  0
LINE
  5
9E
330
1F
100
AcDbEntity
  8
0
  6
Continuous
 62
     7
370
    18
100
AcDbLine
 10
424.7759423969
 20
123.7042898009
 30
0.0
 11
432.7759423969
 21
123.7042898009
 31
0.0
  0
LINE
  5
9F
330
1F
100
AcDbEntity
  8
0
  6
Continuous
 62
     7
370
    18
100
AcDbLine
 10
143.5979068761
 20
263.9537898009
 30
0.0
 11
143.5979068761
 21
250.9537898009
 31
0.0
  0
LINE
  5
A0
330
1F
100
AcDbEntity
  8
0
  6
Continuous
 62
     7
370
    18
100
AcDbLine
 10
422.0759423969
 20
263.9537898009
 30
0.0
 11
422.0759423969
 21
250.9537898009
 31
0.0
  0
LINE
  5
A1
330
1F
100
AcDbEntity
  8
0
  6
Continuous
 62
     7
370
    18
100
AcDbLine
 10
432.7759423969
 20
126.4042898009
 30
0.0
 11
440.7759423969
 21
126.4042898009
 31
0.0
  0
LINE
  5
A2
330
1F
100
AcDbEntity
  8
0
  6
Continuous
 62
     7
370
    18
100
AcDbLine
 10
265.0379400723
 20
297.9023418827
 30
0.0
 11
265.0379400723
 21
300.6023418827
 31
0.0
  0
LINE
  5
A3
330
1F
100
AcDbEntity
  8
0
  6
Continuous
 62
     7
370
    18
100
AcDbLine
 10
143.5979068761
 20
165.7042898009
 30
0.0
 11
143.5979068761
 21
144.7042898009
 31
0.0
  0
LINE
  5
A4
330
1F
100
AcDbEntity
  8
0
  6
Continuous
 62
     7
370
    18
100
AcDbLine
 10
140.8979068761
 20
186.7042898009
 30
0.0
 11
143.5979068761
 21
186.7042898009
 31
0.0
  0
LINE
  5
A5
330
1F
100
AcDbEntity
  8
0
  6
Continuous
 62
     7
370
    18
100
AcDbLine
 10
167.7379400723
 20
207.7042898009
 30
0.0
 11
167.7379400723
 21
186.7042898009
 31
0.0
  0
LINE
  5
A6
330
1F
100
AcDbEntity
  8
0
  6
Continuous
 62
     7
370
    18
100
AcDbLine
 10
140.8979068761
 20
263.9537898009
 30
0.0
 11
143.5979068761
 21
263.9537898009
 31
0.0
  0
LINE
  5
A7
330
1F
100
AcDbEntity
  8
0
  6
Continuous
 62
     7
370
    18
100
AcDbLine
 10
165.0379400723
 20
186.7042898009
 30
0.0
 11
165.0379400723
 21
165.7042898009
 31
0.0
  0
LINE
  5
A8
330
1F
100
AcDbEntity
  8
0
  6
Continuous
 62
     7
370
    18
100
AcDbLine
 10
140.8979068761
 20
250.9537898009
 30
0.0
 11
143.5979068761
 21
250.9537898009
 31
0.0
  0
LINE
  5
A9
330
1F
100
AcDbEntity
  8
0
  6
Continuous
 62
     7
370
    18
100
AcDbLine
 10
167.7379400723
 20
263.9537898009
 30
0.0
 11
167.7379400723
 21
250.9537898009
 31
0.0
  0
LINE
  5
AA
330
1F
100
AcDbEntity
  8
0
  6
Continuous
 62
     7
370
    18
100
AcDbLine
 10
167.7379400723
 20
207.7042898009
 30
0.0
 11
167.7379400723
 21
186.7042898009
 31
0.0
  0
LINE
  5
AB
330
1F
100
AcDbEntity
  8
0
  6
Continuous
 62
     7
370
    18
100
AcDbLine
 10
140.8979068761
 20
230.1537898009
 30
0.0
 11
140.8979068761
 21
207.7042898009
 31
0.0
  0
LINE
  5
AC
330
1F
100
AcDbEntity
  8
0
  6
Continuous
 62
     7
370
    18
100
AcDbLine
 10
140.8979068761
 20
186.7042898009
 30
0.0
 11
140.8979068761
 21
165.7042898009
 31
0.0
  0
LINE
  5
AD
330
1F
100
AcDbEntity
  8
0
  6
Continuous
 62
     7
370
    18
100
AcDbLine
 10
167.7379400723
 20
165.7042898009
 30
0.0
 11
167.7379400723
 21
144.7042898009
 31
0.0
  0
LINE
  5
AE
330
1F
100
AcDbEntity
  8
0
  6
Continuous
 62
     7
370
    18
100
AcDbLine
 10
140.8979068761
 20
144.7042898009
 30
0.0
 11
140.8979068761
 21
123.7042898009
 31
0.0
  0
LINE
  5
AF
330
1F
100
AcDbEntity
  8
0
  6
Continuous
 62
     7
370
    18
100
AcDbLine
 10
165.0379400723
 20
207.7042898009
 30
0.0
 11
167.7379400723
 21
207.7042898009
 31
0.0
  0
LINE
  5
B0
330
1F
100
AcDbEntity
  8
0
  6
Continuous
 62
     7
370
    18
100
AcDbLine
 10
165.0379400723
 20
186.7042898009
 30
0.0
 11
167.7379400723
 21
186.7042898009
 31
0.0
  0
LINE
  5
B1
330
1F
100
AcDbEntity
  8
0
  6
Continuous
 62
     7
370
    18
100
AcDbLine
 10
165.0379400723
 20
165.7042898009
 30
0.0
 11
167.7379400723
 21
165.7042898009
 31
0.0
  0
LINE
  5
B2
330
1F
100
AcDbEntity
  8
0
  6
Continuous
 62
     7
370
    18
100
AcDbLine
 10
165.0379400723
 20
144.7042898009
 30
0.0
 11
167.7379400723
 21
144.7042898009
 31
0.0
  0
LINE
  5
B3
330
1F
100
AcDbEntity
  8
0
  6
Continuous
 62
     7
370
    18
100
AcDbLine
 10
422.0759423969
 20
144.7042898009
 30
0.0
 11
424.7759423969
 21
144.7042898009
 31
0.0
  0
LINE
  5
B4
330
1F
100
AcDbEntity
  8
0
  6
Continuous
 62
     7
370
    18
100
AcDbLine
 10
395.6379400723
 20
263.9537898009
 30
0.0
 11
395.6379400723
 21
250.9537898009
 31
0.0
  0
LINE
  5
B5
330
1F
100
AcDbEntity
  8
0
  6
Continuous
 62
     7
370
    18
100
AcDbLine
 10
398.3379400723
 20
144.7042898009
 30
0.0
 11
398.3379400723
 21
123.7042898009
 31
0.0
  0
LINE
  5
B6
330
1F
100
AcDbEntity
  8
0
  6
Continuous
 62
     7
370
    18
100
AcDbLine
 10
424.7759423969
 20
230.1537898009
 30
0.0
 11
422.0759423969
 21
230.1537898009
 31
0.0
  0
LINE
  5
B7
330
1F
100
AcDbEntity
  8
0
  6
Continuous
 62
     7
370
    18
100
AcDbLine
 10
422.0759423969
 20
207.7042898009
 30
0.0
 11
422.0759423969
 21
186.7042898009
 31
0.0
  0
LINE
  5
B8
330
1F
100
AcDbEntity
  8
0
  6
Continuous
 62
     7
370
    18
100
AcDbLine
 10
215.0379400723
 20
123.7042898009
 30
0.0
 11
240.0379400723
 21
123.7042898009
 31
0.0
  0
LINE
  5
B9
330
1F
100
AcDbEntity
  8
0
  6
Continuous
 62
     7
370
    18
100
AcDbLine
 10
422.0759423969
 20
230.1537898009
 30
0.0
 11
424.7759423969
 21
230.1537898009
 31
0.0
  0
LINE
  5
BA
330
1F
100
AcDbEntity
  8
0
  6
Continuous
 62
     7
370
    18
100
AcDbLine
 10
398.3379400723
 20
230.1537898009
 30
0.0
 11
395.6379400723
 21
230.1537898009
 31
0.0
  0
LINE
  5
BB
330
1F
100
AcDbEntity
  8
0
  6
Continuous
 62
     7
370
    18
100
AcDbLine
 10
265.0379400723
 20
123.7042898009
 30
0.0
 11
298.3379400723
 21
123.7042898009
 31
0.0
  0
LINE
  5
BC
330
1F
100
AcDbEntity
  8
0
  6
Continuous
 62
     7
370
    18
100
AcDbLine
 10
395.6379400723
 20
250.9537898009
 30
0.0
 11
395.6379400723
 21
230.1537898009
 31
0.0
  0
LINE
  5
BD
330
1F
100
AcDbEntity
  8
0
  6
Continuous
 62
     7
370
    18
100
AcDbLine
 10
398.3379400723
 20
186.7042898009
 30
0.0
 11
398.3379400723
 21
165.7042898009
 31
0.0
  0
LINE
  5
BE
330
1F
100
AcDbEntity
  8
0
  6
Continuous
 62
     7
370
    18
100
AcDbLine
 10
422.0759423969
 20
165.7042898009
 30
0.0
 11
422.0759423969
 21
144.7042898009
 31
0.0
  0
LINE
  5
BF
330
1F
100
AcDbEntity
  8
0
  6
Continuous
 62
     7
370
    18
100
AcDbLine
 10
395.6379400723
 20
165.7042898009
 30
0.0
 11
395.6379400723
 21
144.6807501005
 31
0.0
  0
LINE
  5
C0
330
1F
100
AcDbEntity
  8
0
  6
Continuous
 62
     7
370
    18
100
AcDbLine
 10
395.6379400723
 20
207.7042898009
 30
0.0
 11
395.6379400723
 21
186.7042898009
 31
0.0
  0
LINE
  5
C1
330
1F
100
AcDbEntity
  8
0
  6
Continuous
 62
     7
370
    18
100
AcDbLine
 10
323.3379400723
 20
123.7042898009
 30
0.0
 11
348.3379400723
 21
123.7042898009
 31
0.0
  0
LINE
  5
C2
330
1F
100
AcDbEntity
  8
0
  6
Continuous
 62
     7
370
    18
100
AcDbLine
 10
373.3379400723
 20
123.7042898009
 30
0.0
 11
395.6379400723
 21
123.7042898009
 31
0.0
  0
LINE
  5
C3
330
1F
100
AcDbEntity
  8
0
  6
Continuous
 62
     7
370
    18
100
AcDbLine
 10
395.6379400723
 20
263.9537898009
 30
0.0
 11
395.6379400723
 21
250.9537898009
 31
0.0
  0
LINE
  5
C4
330
1F
100
AcDbEntity
  8
0
  6
Continuous
 62
     7
370
    18
100
AcDbLine
 10
398.3379400723
 20
277.1042898009
 30
0.0
 11
398.3379400723
 21
263.9537898009
 31
0.0
  0
LINE
  5
C5
330
1F
100
AcDbEntity
  8
0
  6
Continuous
 62
     7
370
    18
100
AcDbLine
 10
424.7759423969
 20
277.1042898009
 30
0.0
 11
424.7759423969
 21
263.9537898009
 31
0.0
  0
LINE
  5
C6
330
1F
100
AcDbEntity
  8
0
  6
Continuous
 62
     7
370
    18
100
AcDbLine
 10
132.8979068761
 20
274.4042898009
 30
0.0
 11
124.8979068761
 21
274.4042898009
 31
0.0
  0
LINE
  5
C7
330
1F
100
AcDbEntity
  8
0
  6
Continuous
 62
     7
370
    18
100
AcDbLine
 10
124.8979068761
 20
126.4042898009
 30
0.0
 11
132.8979068761
 21
126.4042898009
 31
0.0
  0
LINE
  5
C8
330
1F
100
AcDbEntity
  8
0
  6
Continuous
 62
     7
370
    18
100
AcDbLine
 10
298.3379400723
 20
297.9023418827
 30
0.0
 11
298.3379400723
 21
300.6023418827
 31
0.0
  0
LINE
  5
C9
330
1F
100
AcDbEntity
  8
0
  6
Continuous
 62
     7
370
    18
100
AcDbLine
 10
424.7759423969
 20
186.7042898009
 30
0.0
 11
422.0759423969
 21
186.7042898009
 31
0.0
  0
LINE
  5
CA
330
1F
100
AcDbEntity
  8
0
  6
Continuous
 62
     7
370
    18
100
AcDbLine
 10
165.0379400723
 20
308.6023418827
 30
0.0
 11
167.7379400723
 21
308.6023418827
 31
0.0
  0
LINE
  5
CB
330
1F
100
AcDbEntity
  8
0
  6
Continuous
 62
     7
370
    18
100
AcDbLine
 10
424.7759423969
 20
207.7042898009
 30
0.0
 11
422.0759423969
 21
207.7042898009
 31
0.0
  0
LINE
  5
CC
330
1F
100
AcDbEntity
  8
0
  6
Continuous
 62
     7
370
    18
100
AcDbLine
 10
424.7759423969
 20
144.7042898009
 30
0.0
 11
422.0759423969
 21
144.7042898009
 31
0.0
  0
LINE
  5
CD
330
1F
100
AcDbEntity
  8
0
  6
Continuous
 62
     7
370
    18
100
AcDbLine
 10
167.7379400723
 20
300.6023418827
 30
0.0
 11
190.0379400723
 21
300.6023418827
 31
0.0
  0
LINE
  5
CE
330
1F
100
AcDbEntity
  8
0
  6
Continuous
 62
     7
370
    18
100
AcDbLine
 10
167.7379400723
 20
300.6023418827
 30
0.0
 11
167.7379400723
 21
308.6023418827
 31
0.0
  0
LINE
  5
CF
330
1F
100
AcDbEntity
  8
0
  6
Continuous
 62
     7
370
    18
100
AcDbLine
 10
422.0759423969
 20
263.9537898009
 30
0.0
 11
422.0759423969
 21
250.9537898009
 31
0.0
  0
LINE
  5
D0
330
1F
100
AcDbEntity
  8
0
  6
Continuous
 62
     7
370
    18
100
AcDbLine
 10
424.7759423969
 20
165.7042898009
 30
0.0
 11
422.0759423969
 21
165.7042898009
 31
0.0
  0
LINE
  5
D1
330
1F
100
AcDbEntity
  8
0
  6
Continuous
 62
     7
370
    18
100
AcDbLine
 10
395.6379400723
 20
300.6023418827
 30
0.0
 11
395.6379400723
 21
308.6023418827
 31
0.0
  0
LINE
  5
D2
330
1F
100
AcDbEntity
  8
0
  6
Continuous
 62
     7
370
    18
100
AcDbLine
 10
424.7759423969
 20
263.9537898009
 30
0.0
 11
422.0759423969
 21
263.9537898009
 31
0.0
  0
LINE
  5
D3
330
1F
100
AcDbEntity
  8
0
  6
Continuous
 62
     7
370
    18
100
AcDbLine
 10
398.3379400723
 20
207.7042898009
 30
0.0
 11
395.6379400723
 21
207.7042898009
 31
0.0
  0
LINE
  5
D4
330
1F
100
AcDbEntity
  8
0
  6
Continuous
 62
     7
370
    18
100
AcDbLine
 10
323.3379400723
 20
297.9023418827
 30
0.0
 11
323.3379400723
 21
300.6023418827
 31
0.0
  0
LINE
  5
D5
330
1F
100
AcDbEntity
  8
0
  6
Continuous
 62
     7
370
    18
100
AcDbLine
 10
348.3379400723
 20
297.9023418827
 30
0.0
 11
348.3379400723
 21
300.6023418827
 31
0.0
  0
LINE
  5
D6
330
1F
100
AcDbEntity
  8
0
  6
Continuous
 62
     7
370
    18
100
AcDbLine
 10
398.3379400723
 20
144.7042898009
 30
0.0
 11
395.6379400723
 21
144.7042898009
 31
0.0
  0
LINE
  5
D7
330
1F
100
AcDbEntity
  8
0
  6
Continuous
 62
     7
370
    18
100
AcDbLine
 10
398.3379400723
 20
186.7042898009
 30
0.0
 11
395.6379400723
 21
186.7042898009
 31
0.0
  0
LINE
  5
D8
330
1F
100
AcDbEntity
  8
0
  6
Continuous
 62
     7
370
    18
100
AcDbLine
 10
373.3379400723
 20
297.9023418827
 30
0.0
 11
373.3379400723
 21
300.6023418827
 31
0.0
  0
LINE
  5
D9
330
1F
100
AcDbEntity
  8
0
  6
Continuous
 62
     7
370
    18
100
AcDbLine
 10
190.0379400723
 20
274.4042898009
 30
0.0
 11
215.0379400723
 21
274.4042898009
 31
0.0
  0
LINE
  5
DA
330
1F
100
AcDbEntity
  8
0
  6
Continuous
 62
     7
370
    18
100
AcDbLine
 10
190.0379400723
 20
274.4042898009
 30
0.0
 11
190.0379400723
 21
277.1042898009
 31
0.0
  0
LINE
  5
DB
330
1F
100
AcDbEntity
  8
0
  6
Continuous
 62
     7
370
    18
100
AcDbLine
 10
398.3379400723
 20
165.7042898009
 30
0.0
 11
395.6379400723
 21
165.7042898009
 31
0.0
  0
LINE
  5
DC
330
1F
100
AcDbEntity
  8
0
  6
Continuous
 62
     7
370
    18
100
AcDbLine
 10
398.3379400723
 20
263.9537898009
 30
0.0
 11
395.6379400723
 21
263.9537898009
 31
0.0
  0
LINE
  5
DD
330
1F
100
AcDbEntity
  8
0
  6
Continuous
 62
     7
370
    18
100
AcDbLine
 10
215.0379400723
 20
277.1042898009
 30
0.0
 11
240.0379400723
 21
277.1042898009
 31
0.0
  0
LINE
  5
DE
330
1F
100
AcDbEntity
  8
0
  6
Continuous
 62
     7
370
    18
100
AcDbLine
 10
215.0379400723
 20
274.4042898009
 30
0.0
 11
215.0379400723
 21
277.1042898009
 31
0.0
  0
LINE
  5
DF
330
1F
100
AcDbEntity
  8
0
  6
Continuous
 62
     7
370
    18
100
AcDbLine
 10
240.0379400723
 20
274.4042898009
 30
0.0
 11
265.0379400723
 21
274.4042898009
 31
0.0
  0
LINE
  5
E0
330
1F
100
AcDbEntity
  8
0
  6
Continuous
 62
     7
370
    18
100
AcDbLine
 10
240.0379400723
 20
274.4042898009
 30
0.0
 11
240.0379400723
 21
277.1042898009
 31
0.0
  0
LINE
  5
E1
330
1F
100
AcDbEntity
  8
0
  6
Continuous
 62
     7
370
    18
100
AcDbLine
 10
323.3379400723
 20
300.6023418827
 30
0.0
 11
348.3379400723
 21
300.6023418827
 31
0.0
  0
LINE
  5
E2
330
1F
100
AcDbEntity
  8
0
  6
Continuous
 62
     7
370
    18
100
AcDbLine
 10
265.0379400723
 20
274.4042898009
 30
0.0
 11
265.0379400723
 21
277.1042898009
 31
0.0
  0
LINE
  5
E3
330
1F
100
AcDbEntity
  8
0
  6
Continuous
 62
     7
370
    18
100
AcDbLine
 10
298.3379400723
 20
274.4042898009
 30
0.0
 11
323.3379400723
 21
274.4042898009
 31
0.0
  0
LINE
  5
E4
330
1F
100
AcDbEntity
  8
0
  6
Continuous
 62
     7
370
    18
100
AcDbLine
 10
298.3379400723
 20
274.4042898009
 30
0.0
 11
298.3379400723
 21
277.1042898009
 31
0.0
  0
LINE
  5
E5
330
1F
100
AcDbEntity
  8
0
  6
Continuous
 62
     7
370
    18
100
AcDbLine
 10
323.3379400723
 20
277.1042898009
 30
0.0
 11
348.3379400723
 21
277.1042898009
 31
0.0
  0
LINE
  5
E6
330
1F
100
AcDbEntity
  8
0
  6
Continuous
 62
     7
370
    18
100
AcDbLine
 10
323.3379400723
 20
274.4042898009
 30
0.0
 11
323.3379400723
 21
277.1042898009
 31
0.0
  0
LINE
  5
E7
330
1F
100
AcDbEntity
  8
0
  6
Continuous
 62
     7
370
    18
100
AcDbLine
 10
348.3379400723
 20
274.4042898009
 30
0.0
 11
373.3379400723
 21
274.4042898009
 31
0.0
  0
LINE
  5
E8
330
1F
100
AcDbEntity
  8
0
  6
Continuous
 62
     7
370
    18
100
AcDbLine
 10
348.3379400723
 20
274.4042898009
 30
0.0
 11
348.3379400723
 21
277.1042898009
 31
0.0
  0
LINE
  5
E9
330
1F
100
AcDbEntity
  8
0
  6
Continuous
 62
     7
370
    18
100
AcDbLine
 10
373.3379400723
 20
277.1042898009
 30
0.0
 11
398.3379400723
 21
277.1042898009
 31
0.0
  0
LINE
  5
EA
330
1F
100
AcDbEntity
  8
0
  6
Continuous
 62
     7
370
    18
100
AcDbLine
 10
373.3379400723
 20
274.4042898009
 30
0.0
 11
373.3379400723
 21
277.1042898009
 31
0.0
  0
LINE
  5
EB
330
1F
100
AcDbEntity
  8
0
  6
Continuous
 62
     7
370
    18
100
AcDbLine
 10
298.3379400723
 20
274.4042898009
 30
0.0
 11
323.3379400723
 21
274.4042898009
 31
0.0
  0
LINE
  5
EC
330
1F
100
AcDbEntity
  8
0
  6
Continuous
 62
     7
370
    18
100
AcDbLine
 10
298.3379400723
 20
297.9023418827
 30
0.0
 11
323.3379400723
 21
297.9023418827
 31
0.0
  0
LINE
  5
ED
330
1F
100
AcDbEntity
  8
0
  6
Continuous
 62
     7
370
    18
100
AcDbLine
 10
265.0379400723
 20
277.1042898009
 30
0.0
 11
298.3379400723
 21
277.1042898009
 31
0.0
  0
LINE
  5
EE
330
1F
100
AcDbEntity
  8
0
  6
Continuous
 62
     7
370
    18
100
AcDbLine
 10
265.0379400723
 20
300.6023418827
 30
0.0
 11
298.3379400723
 21
300.6023418827
 31
0.0
  0
LINE
  5
EF
330
1F
100
AcDbEntity
  8
0
  6
Continuous
 62
     7
370
    18
100
AcDbLine
 10
348.3379400723
 20
274.4042898009
 30
0.0
 11
373.3379400723
 21
274.4042898009
 31
0.0
  0
LINE
  5
F0
330
1F
100
AcDbEntity
  8
0
  6
Continuous
 62
     7
370
    18
100
AcDbLine
 10
348.3379400723
 20
297.9023418827
 30
0.0
 11
373.3379400723
 21
297.9023418827
 31
0.0
  0
LINE
  5
F1
330
1F
100
AcDbEntity
  8
0
  6
Continuous
 62
     7
370
    18
100
AcDbLine
 10
240.0379400723
 20
274.4042898009
 30
0.0
 11
265.0379400723
 21
274.4042898009
 31
0.0
  0
LINE
  5
F2
330
1F
100
AcDbEntity
  8
0
  6
Continuous
 62
     7
370
    18
100
AcDbLine
 10
240.0379400723
 20
297.9023418827
 30
0.0
 11
265.0379400723
 21
297.9023418827
 31
0.0
  0
LINE
  5
F3
330
1F
100
AcDbEntity
  8
0
  6
Continuous
 62
     7
370
    18
100
AcDbLine
 10
215.0379400723
 20
300.6023418827
 30
0.0
 11
240.0379400723
 21
300.6023418827
 31
0.0
  0
LINE
  5
F4
330
1F
100
AcDbEntity
  8
0
  6
Continuous
 62
     7
370
    18
100
AcDbLine
 10
373.3379400723
 20
300.6023418827
 30
0.0
 11
395.6379400723
 21
300.6023418827
 31
0.0
  0
LINE
  5
F5
330
1F
100
AcDbEntity
  8
0
  6
Continuous
 62
     7
370
    18
100
AcDbLine
 10
190.0379400723
 20
274.4042898009
 30
0.0
 11
215.0379400723
 21
274.4042898009
 31
0.0
  0
LINE
  5
F6
330
1F
100
AcDbEntity
  8
0
  6
Continuous
 62
     7
370
    18
100
AcDbLine
 10
190.0379400723
 20
297.9023418827
 30
0.0
 11
215.0379400723
 21
297.9023418827
 31
0.0
  0
LINE
  5
F7
330
1F
100
AcDbEntity
  8
0
  6
Continuous
 62
     7
370
    18
100
AcDbLine
 10
432.7759423969
 20
274.4042898009
 30
0.0
 11
440.7759423969
 21
274.4042898009
 31
0.0
  0
LINE
  5
F8
330
1F
100
AcDbEntity
  8
0
  6
Continuous
 62
     7
370
    18
100
AcDbLine
 10
398.3379400723
 20
230.1537898009
 30
0.0
 11
398.3379400723
 21
207.7042898009
 31
0.0
  0
LINE
  5
F9
330
1F
100
AcDbEntity
  8
0
  6
Continuous
 62
     7
370
    18
100
AcDbLine
 10
422.0759423969
 20
263.9537898009
 30
0.0
 11
422.0759423969
 21
230.1537898009
 31
0.0
  0
LINE
  5
FA
330
1F
100
AcDbEntity
  8
0
  6
Continuous
 62
     7
370
    18
100
AcDbLine
 10
404.9451674791
 20
242.8319059111
 30
0.0
 11
404.9451674791
 21
242.5159341144
 31
0.0
  0
LINE
  5
FB
330
1F
100
AcDbEntity
  8
0
  6
Continuous
 62
     7
370
    18
100
AcDbLine
 10
398.3379400723
 20
230.1537898009
 30
0.0
 11
398.3379400723
 21
207.7042898009
 31
0.0
  0
LINE
  5
FC
330
1F
100
AcDbEntity
  8
0
  6
Continuous
 62
     7
370
    18
100
AcDbLine
 10
422.0759423969
 20
207.7042898009
 30
0.0
 11
424.7759423969
 21
207.7042898009
 31
0.0
  0
LINE
  5
FD
330
1F
100
AcDbEntity
  8
0
  6
Continuous
 62
     7
370
    18
100
AcDbLine
 10
424.7759423969
 20
230.1537898009
 30
0.0
 11
424.7759423969
 21
207.7042898009
 31
0.0
  0
LINE
  5
FE
330
1F
100
AcDbEntity
  8
0
  6
Continuous
 62
     7
370
    18
100
AcDbLine
 10
422.0759423969
 20
186.7042898009
 30
0.0
 11
424.7759423969
 21
186.7042898009
 31
0.0
  0
LINE
  5
FF
330
1F
100
AcDbEntity
  8
0
  6
Continuous
 62
     7
370
    18
100
AcDbLine
 10
398.3379400723
 20
186.7042898009
 30
0.0
 11
398.3379400723
 21
165.7042898009
 31
0.0
  0
LINE
  5
100
330
1F
100
AcDbEntity
  8
0
  6
Continuous
 62
     7
370
    18
100
AcDbLine
 10
422.0759423969
 20
165.7042898009
 30
0.0
 11
424.7759423969
 21
165.7042898009
 31
0.0
  0
LINE
  5
101
330
1F
100
AcDbEntity
  8
0
  6
Continuous
 62
     7
370
    18
100
AcDbLine
 10
424.7759423969
 20
186.7042898009
 30
0.0
 11
424.7759423969
 21
165.7042898009
 31
0.0
  0
LINE
  5
102
330
1F
100
AcDbEntity
  8
0
  6
Continuous
 62
     7
370
    18
100
AcDbLine
 10
395.6379400723
 20
144.7042898009
 30
0.0
 11
398.3379400723
 21
144.7042898009
 31
0.0
  0
LINE
  5
103
330
1F
100
AcDbEntity
  8
0
  6
Continuous
 62
     7
370
    18
100
AcDbLine
 10
132.8979068761
 20
277.1042898009
 30
0.0
 11
132.8979068761
 21
274.4042898009
 31
0.0
  0
LINE
  5
104
330
1F
100
AcDbEntity
  8
0
  6
Continuous
 62
     7
370
    18
100
AcDbLine
 10
395.6379400723
 20
123.7042898009
 30
0.0
 11
398.3379400723
 21
123.7042898009
 31
0.0
  0
LINE
  5
105
330
1F
100
AcDbEntity
  8
0
  6
Continuous
 62
     7
370
    18
100
AcDbLine
 10
424.7759423969
 20
144.7042898009
 30
0.0
 11
424.7759423969
 21
123.7042898009
 31
0.0
  0
LINE
  5
106
330
1F
100
AcDbEntity
  8
0
  6
Continuous
 62
     7
370
    18
100
AcDbLine
 10
432.7759423969
 20
277.1042898009
 30
0.0
 11
432.7759423969
 21
274.4042898009
 31
0.0
  0
LINE
  5
107
330
1F
100
AcDbEntity
  8
0
  6
Continuous
 62
     7
370
    18
100
AcDbLine
 10
432.7759423969
 20
274.4042898009
 30
0.0
 11
440.7759423969
 21
274.4042898009
 31
0.0
  0
LINE
  5
108
330
1F
100
AcDbEntity
  8
0
  6
Continuous
 62
     7
370
    18
100
AcDbLine
 10
132.8979068761
 20
123.7042898009
 30
0.0
 11
132.8979068761
 21
126.4042898009
 31
0.0
  0
LINE
  5
109
330
1F
100
AcDbEntity
  8
0
  6
Continuous
 62
     7
370
    18
100
AcDbLine
 10
132.8979068761
 20
126.4042898009
 30
0.0
 11
124.8979068761
 21
126.4042898009
 31
0.0
  0
LINE
  5
10A
330
1F
100
AcDbEntity
  8
0
  6
Continuous
 62
     7
370
    18
100
AcDbLine
 10
432.7759423969
 20
123.7042898009
 30
0.0
 11
432.7759423969
 21
126.4042898009
 31
0.0
  0
LINE
  5
10B
330
1F
100
AcDbEntity
  8
0
  6
Continuous
 62
     7
370
    18
100
AcDbLine
 10
373.3379400723
 20
126.4042898009
 30
0.0
 11
373.3379400723
 21
123.7042898009
 31
0.0
  0
LINE
  5
10C
330
1F
100
AcDbEntity
  8
0
  6
Continuous
 62
     7
370
    18
100
AcDbLine
 10
215.0379400723
 20
126.4042898009
 30
0.0
 11
215.0379400723
 21
123.7042898009
 31
0.0
  0
LINE
  5
10D
330
1F
100
AcDbEntity
  8
0
  6
Continuous
 62
     7
370
    18
100
AcDbLine
 10
348.3379400723
 20
126.4042898009
 30
0.0
 11
373.3379400723
 21
126.4042898009
 31
0.0
  0
LINE
  5
10E
330
1F
100
AcDbEntity
  8
0
  6
Continuous
 62
     7
370
    18
100
AcDbLine
 10
323.3379400723
 20
126.4042898009
 30
0.0
 11
323.3379400723
 21
123.7042898009
 31
0.0
  0
LINE
  5
10F
330
1F
100
AcDbEntity
  8
0
  6
Continuous
 62
     7
370
    18
100
AcDbLine
 10
190.0379400723
 20
126.4042898009
 30
0.0
 11
190.0379400723
 21
123.7042898009
 31
0.0
  0
LINE
  5
110
330
1F
100
AcDbEntity
  8
0
  6
Continuous
 62
     7
370
    18
100
AcDbLine
 10
240.0379400723
 20
126.4042898009
 30
0.0
 11
265.0379400723
 21
126.4042898009
 31
0.0
  0
LINE
  5
111
330
1F
100
AcDbEntity
  8
0
  6
Continuous
 62
     7
370
    18
100
AcDbLine
 10
298.3379400723
 20
126.4042898009
 30
0.0
 11
298.3379400723
 21
123.7042898009
 31
0.0
  0
LINE
  5
112
330
1F
100
AcDbEntity
  8
0
  6
Continuous
 62
     7
370
    18
100
AcDbLine
 10
265.0379400723
 20
123.7042898009
 30
0.0
 11
298.3379400723
 21
123.7042898009
 31
0.0
  0
LINE
  5
113
330
1F
100
AcDbEntity
  8
0
  6
Continuous
 62
     7
370
    18
100
AcDbLine
 10
265.0379400723
 20
126.4042898009
 30
0.0
 11
265.0379400723
 21
123.7042898009
 31
0.0
  0
LINE
  5
114
330
1F
100
AcDbEntity
  8
0
  6
Continuous
 62
     7
370
    18
100
AcDbLine
 10
373.3379400723
 20
123.7042898009
 30
0.0
 11
398.3379400723
 21
123.7042898009
 31
0.0
  0
LINE
  5
115
330
1F
100
AcDbEntity
  8
0
  6
Continuous
 62
     7
370
    18
100
AcDbLine
 10
298.3379400723
 20
126.4042898009
 30
0.0
 11
323.3379400723
 21
126.4042898009
 31
0.0
  0
LINE
  5
116
330
1F
100
AcDbEntity
  8
0
  6
Continuous
 62
     7
370
    18
100
AcDbLine
 10
240.0379400723
 20
126.4042898009
 30
0.0
 11
240.0379400723
 21
123.7042898009
 31
0.0
  0
LINE
  5
117
330
1F
100
AcDbEntity
  8
0
  6
Continuous
 62
     7
370
    18
100
AcDbLine
 10
348.3379400723
 20
126.4042898009
 30
0.0
 11
348.3379400723
 21
123.7042898009
 31
0.0
  0
LINE
  5
118
330
1F
100
AcDbEntity
  8
0
  6
Continuous
 62
     7
370
    18
100
AcDbLine
 10
240.0379400723
 20
126.4042898009
 30
0.0
 11
265.0379400723
 21
126.4042898009
 31
0.0
  0
LINE
  5
119
330
1F
100
AcDbEntity
  8
0
  6
Continuous
 62
     7
370
    18
100
AcDbLine
 10
215.0379400723
 20
123.7042898009
 30
0.0
 11
240.0379400723
 21
123.7042898009
 31
0.0
  0
LINE
  5
11A
330
1F
100
AcDbEntity
  8
0
  6
Continuous
 62
     7
370
    18
100
AcDbLine
 10
298.3379400723
 20
126.4042898009
 30
0.0
 11
323.3379400723
 21
126.4042898009
 31
0.0
  0
LINE
  5
11B
330
1F
100
AcDbEntity
  8
0
  6
Continuous
 62
     7
370
    18
100
AcDbLine
 10
348.3379400723
 20
126.4042898009
 30
0.0
 11
373.3379400723
 21
126.4042898009
 31
0.0
  0
LINE
  5
11C
330
1F
100
AcDbEntity
  8
0
  6
Continuous
 62
     7
370
    18
100
AcDbLine
 10
190.0379400723
 20
126.4042898009
 30
0.0
 11
215.0379400723
 21
126.4042898009
 31
0.0
  0
LINE
  5
11D
330
1F
100
AcDbEntity
  8
0
  6
Continuous
 62
     7
370
    18
100
AcDbLine
 10
323.3379400723
 20
123.7042898009
 30
0.0
 11
348.3379400723
 21
123.7042898009
 31
0.0
  0
LINE
  5
11E
330
1F
100
AcDbEntity
  8
0
  6
Continuous
 62
     7
370
    18
100
AcDbLine
 10
190.0379400723
 20
126.4042898009
 30
0.0
 11
215.0379400723
 21
126.4042898009
 31
0.0
  0
LINE
  5
11F
330
1F
100
AcDbEntity
  8
0
  6
Continuous
 62
     7
370
    18
100
AcDbLine
 10
165.0379400723
 20
123.7042898009
 30
0.0
 11
190.0379400723
 21
123.7042898009
 31
0.0
  0
LINE
  5
120
330
1F
100
AcDbEntity
  8
0
  6
Continuous
 62
     7
370
    18
100
AcDbLine
 10
432.7759423969
 20
126.4042898009
 30
0.0
 11
440.7759423969
 21
126.4042898009
 31
0.0
  0
LINE
  5
121
330
1F
100
AcDbEntity
  8
0
  6
Continuous
 62
     7
370
    18
100
AcDbLine
 10
398.3379400723
 20
308.6023418827
 30
0.0
 11
395.6379400723
 21
308.6023418827
 31
0.0
  0
LINE
  5
122
330
1F
100
AcDbEntity
  8
0
  6
Continuous
 62
     7
370
    18
100
AcDbLine
 10
398.3379400723
 20
308.6023418827
 30
0.0
 11
398.3379400723
 21
316.6023418827
 31
0.0
  0
LINE
  5
123
330
1F
100
AcDbEntity
  8
0
  6
Continuous
 62
     7
370
    18
100
AcDbLine
 10
167.7379400723
 20
308.6023418827
 30
0.0
 11
167.7379400723
 21
300.6023418827
 31
0.0
  0
LINE
  5
124
330
1F
100
AcDbEntity
  8
0
  6
Continuous
 62
     7
370
    18
100
AcDbLine
 10
398.3379400723
 20
316.6023418827
 30
0.0
 11
395.6379400723
 21
316.6023418827
 31
0.0
  0
LINE
  5
125
330
1F
100
AcDbEntity
  8
0
  6
Continuous
 62
     7
370
    18
100
AcDbLine
 10
190.0379400723
 20
113.4650557052
 30
0.0
 11
215.0379400723
 21
113.4650557052
 31
0.0
  0
LINE
  5
126
330
1F
100
AcDbEntity
  8
0
  6
Continuous
 62
   179
370
    25
100
AcDbLine
 10
173.7379400723
 20
250.9537898009
 30
0.0
 11
173.7379400723
 21
230.1537898009
 31
0.0
  0
LINE
  5
127
330
1F
100
AcDbEntity
  8
0
  6
Continuous
 62
   179
370
    25
100
AcDbLine
 10
365.6239904039
 20
259.8542898009
 30
0.0
 11
366.7786909423
 21
257.8542898009
 31
0.0
  0
LINE
  5
128
330
1F
100
AcDbEntity
  8
0
  6
Continuous
 62
   179
370
    25
100
AcDbLine
 10
366.7786909423
 20
261.8542898009
 30
0.0
 11
365.6239904039
 21
259.8542898009
 31
0.0
  0
LINE
  5
129
330
1F
100
AcDbEntity
  8
0
  6
Continuous
 62
   179
370
    25
100
AcDbLine
 10
369.088092019
 20
257.8542898009
 30
0.0
 11
370.2427925574
 21
259.8542898009
 31
0.0
  0
LINE
  5
12A
330
1F
100
AcDbEntity
  8
0
  6
Continuous
 62
   179
370
    25
100
AcDbLine
 10
366.7786909423
 20
257.8542898009
 30
0.0
 11
369.088092019
 21
257.8542898009
 31
0.0
  0
LINE
  5
12B
330
1F
100
AcDbEntity
  8
0
  6
Continuous
 62
   179
370
    25
100
AcDbLine
 10
361.088092019
 20
257.8542898009
 30
0.0
 11
362.2427925574
 21
259.8542898009
 31
0.0
  0
LINE
  5
12C
330
1F
100
AcDbEntity
  8
0
  6
Continuous
 62
   179
370
    25
100
AcDbLine
 10
358.7786909423
 20
257.8542898009
 30
0.0
 11
361.088092019
 21
257.8542898009
 31
0.0
  0
LINE
  5
12D
330
1F
100
AcDbEntity
  8
0
  6
Continuous
 62
   179
370
    25
100
AcDbLine
 10
357.6239904039
 20
259.8542898009
 30
0.0
 11
358.7786909423
 21
257.8542898009
 31
0.0
  0
LINE
  5
12E
330
1F
100
AcDbEntity
  8
0
  6
Continuous
 62
   179
370
    25
100
AcDbLine
 10
358.7786909423
 20
261.8542898009
 30
0.0
 11
357.6239904039
 21
259.8542898009
 31
0.0
  0
LINE
  5
12F
330
1F
100
AcDbEntity
  8
0
  6
Continuous
 62
   179
370
    25
100
AcDbLine
 10
362.7786909423
 20
254.9260865706
 30
0.0
 11
361.6239904039
 21
252.9260865706
 31
0.0
  0
LINE
  5
130
330
1F
100
AcDbEntity
  8
0
  6
Continuous
 62
   179
370
    25
100
AcDbLine
 10
365.088092019
 20
254.9260865706
 30
0.0
 11
362.7786909423
 21
254.9260865706
 31
0.0
  0
LINE
  5
131
330
1F
100
AcDbEntity
  8
0
  6
Continuous
 62
   179
370
    25
100
AcDbLine
 10
366.2427925574
 20
252.9260865706
 30
0.0
 11
365.088092019
 21
254.9260865706
 31
0.0
  0
LINE
  5
132
330
1F
100
AcDbEntity
  8
0
  6
Continuous
 62
   179
370
    25
100
AcDbLine
 10
365.088092019
 20
250.9260865706
 30
0.0
 11
366.2427925574
 21
252.9260865706
 31
0.0
  0
LINE
  5
133
330
1F
100
AcDbEntity
  8
0
  6
Continuous
 62
   179
370
    25
100
AcDbLine
 10
362.7786909423
 20
250.9260865706
 30
0.0
 11
365.088092019
 21
250.9260865706
 31
0.0
  0
LINE
  5
134
330
1F
100
AcDbEntity
  8
0
  6
Continuous
 62
   179
370
    25
100
AcDbLine
 10
361.6239904039
 20
252.9260865706
 30
0.0
 11
362.7786909423
 21
250.9260865706
 31
0.0
  0
LINE
  5
135
330
1F
100
AcDbEntity
  8
0
  6
Continuous
 62
   179
370
    25
100
AcDbLine
 10
369.6239904039
 20
252.9260865706
 30
0.0
 11
370.7786909423
 21
250.9260865706
 31
0.0
  0
LINE
  5
136
330
1F
100
AcDbEntity
  8
0
  6
Continuous
 62
   179
370
    25
100
AcDbLine
 10
370.7786909423
 20
254.9260865706
 30
0.0
 11
369.6239904039
 21
252.9260865706
 31
0.0
  0
LINE
  5
137
330
1F
100
AcDbEntity
  8
0
  6
Continuous
 62
   179
370
    25
100
AcDbLine
 10
373.088092019
 20
254.9260865706
 30
0.0
 11
370.7786909423
 21
254.9260865706
 31
0.0
  0
LINE
  5
138
330
1F
100
AcDbEntity
  8
0
  6
Continuous
 62
   179
370
    25
100
AcDbLine
 10
374.2427925574
 20
252.9260865706
 30
0.0
 11
373.088092019
 21
254.9260865706
 31
0.0
  0
LINE
  5
139
330
1F
100
AcDbEntity
  8
0
  6
Continuous
 62
   179
370
    25
100
AcDbLine
 10
373.088092019
 20
250.9260865706
 30
0.0
 11
374.2427925574
 21
252.9260865706
 31
0.0
  0
LINE
  5
13A
330
1F
100
AcDbEntity
  8
0
  6
Continuous
 62
   179
370
    25
100
AcDbLine
 10
370.7786909423
 20
250.9260865706
 30
0.0
 11
373.088092019
 21
250.9260865706
 31
0.0
  0
LINE
  5
13B
330
1F
100
AcDbEntity
  8
0
  6
Continuous
 62
   179
370
    25
100
AcDbLine
 10
374.7786909423
 20
257.8542898009
 30
0.0
 11
377.088092019
 21
257.8542898009
 31
0.0
  0
LINE
  5
13C
330
1F
100
AcDbEntity
  8
0
  6
Continuous
 62
   179
370
    25
100
AcDbLine
 10
366.2427925574
 20
266.7824930312
 30
0.0
 11
365.088092019
 21
268.7824930312
 31
0.0
  0
LINE
  5
13D
330
1F
100
AcDbEntity
  8
0
  6
Continuous
 62
   179
370
    25
100
AcDbLine
 10
365.088092019
 20
264.7824930312
 30
0.0
 11
366.2427925574
 21
266.7824930312
 31
0.0
  0
LINE
  5
13E
330
1F
100
AcDbEntity
  8
0
  6
Continuous
 62
   179
370
    25
100
AcDbLine
 10
362.7786909423
 20
264.7824930312
 30
0.0
 11
365.088092019
 21
264.7824930312
 31
0.0
  0
LINE
  5
13F
330
1F
100
AcDbEntity
  8
0
  6
Continuous
 62
   179
370
    25
100
AcDbLine
 10
361.6239904039
 20
266.7824930312
 30
0.0
 11
362.7786909423
 21
264.7824930312
 31
0.0
  0
LINE
  5
140
330
1F
100
AcDbEntity
  8
0
  6
Continuous
 62
   179
370
    25
100
AcDbLine
 10
362.7786909423
 20
268.7824930312
 30
0.0
 11
361.6239904039
 21
266.7824930312
 31
0.0
  0
LINE
  5
141
330
1F
100
AcDbEntity
  8
0
  6
Continuous
 62
   179
370
    25
100
AcDbLine
 10
365.088092019
 20
268.7824930312
 30
0.0
 11
362.7786909423
 21
268.7824930312
 31
0.0
  0
LINE
  5
142
330
1F
100
AcDbEntity
  8
0
  6
Continuous
 62
   179
370
    25
100
AcDbLine
 10
202.0973411491
 20
266.7824930312
 30
0.0
 11
200.9426406107
 21
268.7824930312
 31
0.0
  0
LINE
  5
143
330
1F
100
AcDbEntity
  8
0
  6
Continuous
 62
   179
370
    25
100
AcDbLine
 10
200.9426406107
 20
264.7824930312
 30
0.0
 11
202.0973411491
 21
266.7824930312
 31
0.0
  0
LINE
  5
144
330
1F
100
AcDbEntity
  8
0
  6
Continuous
 62
   179
370
    25
100
AcDbLine
 10
198.6332395339
 20
264.7824930312
 30
0.0
 11
200.9426406107
 21
264.7824930312
 31
0.0
  0
LINE
  5
145
330
1F
100
AcDbEntity
  8
0
  6
Continuous
 62
   179
370
    25
100
AcDbLine
 10
197.4785389955
 20
266.7824930312
 30
0.0
 11
198.6332395339
 21
264.7824930312
 31
0.0
  0
LINE
  5
146
330
1F
100
AcDbEntity
  8
0
  6
Continuous
 62
   179
370
    25
100
AcDbLine
 10
198.6332395339
 20
268.7824930312
 30
0.0
 11
197.4785389955
 21
266.7824930312
 31
0.0
  0
LINE
  5
147
330
1F
100
AcDbEntity
  8
0
  6
Continuous
 62
   179
370
    25
100
AcDbLine
 10
200.9426406107
 20
268.7824930312
 30
0.0
 11
198.6332395339
 21
268.7824930312
 31
0.0
  0
LINE
  5
148
330
1F
100
AcDbEntity
  8
0
  6
Continuous
 62
   179
370
    25
100
AcDbLine
 10
193.4785389955
 20
259.8542898009
 30
0.0
 11
194.6332395339
 21
257.8542898009
 31
0.0
  0
LINE
  5
149
330
1F
100
AcDbEntity
  8
0
  6
Continuous
 62
   179
370
    25
100
AcDbLine
 10
194.6332395339
 20
261.8542898009
 30
0.0
 11
193.4785389955
 21
259.8542898009
 31
0.0
  0
LINE
  5
14A
330
1F
100
AcDbEntity
  8
0
  6
Continuous
 62
   179
370
    25
100
AcDbLine
 10
196.9426406107
 20
261.8542898009
 30
0.0
 11
194.6332395339
 21
261.8542898009
 31
0.0
  0
LINE
  5
14B
330
1F
100
AcDbEntity
  8
0
  6
Continuous
 62
   179
370
    25
100
AcDbLine
 10
198.0973411491
 20
259.8542898009
 30
0.0
 11
196.9426406107
 21
261.8542898009
 31
0.0
  0
LINE
  5
14C
330
1F
100
AcDbEntity
  8
0
  6
Continuous
 62
   179
370
    25
100
AcDbLine
 10
196.9426406107
 20
257.8542898009
 30
0.0
 11
198.0973411491
 21
259.8542898009
 31
0.0
  0
LINE
  5
14D
330
1F
100
AcDbEntity
  8
0
  6
Continuous
 62
   179
370
    25
100
AcDbLine
 10
361.088092019
 20
261.8542898009
 30
0.0
 11
358.7786909423
 21
261.8542898009
 31
0.0
  0
LINE
  5
14E
330
1F
100
AcDbEntity
  8
0
  6
Continuous
 62
   179
370
    25
100
AcDbLine
 10
362.2427925574
 20
259.8542898009
 30
0.0
 11
361.088092019
 21
261.8542898009
 31
0.0
  0
LINE
  5
14F
330
1F
100
AcDbEntity
  8
0
  6
Continuous
 62
   179
370
    25
100
AcDbLine
 10
190.6332395339
 20
250.9260865706
 30
0.0
 11
192.9426406107
 21
250.9260865706
 31
0.0
  0
LINE
  5
150
330
1F
100
AcDbEntity
  8
0
  6
Continuous
 62
   179
370
    25
100
AcDbLine
 10
189.4785389955
 20
252.9260865706
 30
0.0
 11
190.6332395339
 21
250.9260865706
 31
0.0
  0
LINE
  5
151
330
1F
100
AcDbEntity
  8
0
  6
Continuous
 62
   179
370
    25
100
AcDbLine
 10
190.6332395339
 20
254.9260865706
 30
0.0
 11
189.4785389955
 21
252.9260865706
 31
0.0
  0
LINE
  5
152
330
1F
100
AcDbEntity
  8
0
  6
Continuous
 62
   179
370
    25
100
AcDbLine
 10
192.9426406107
 20
254.9260865706
 30
0.0
 11
190.6332395339
 21
254.9260865706
 31
0.0
  0
LINE
  5
153
330
1F
100
AcDbEntity
  8
0
  6
Continuous
 62
   179
370
    25
100
AcDbLine
 10
194.0973411491
 20
252.9260865706
 30
0.0
 11
192.9426406107
 21
254.9260865706
 31
0.0
  0
LINE
  5
154
330
1F
100
AcDbEntity
  8
0
  6
Continuous
 62
   179
370
    25
100
AcDbLine
 10
202.0973411491
 20
252.9260865706
 30
0.0
 11
200.9426406107
 21
254.9260865706
 31
0.0
  0
LINE
  5
155
330
1F
100
AcDbEntity
  8
0
  6
Continuous
 62
   179
370
    25
100
AcDbLine
 10
200.9426406107
 20
250.9260865706
 30
0.0
 11
202.0973411491
 21
252.9260865706
 31
0.0
  0
LINE
  5
156
330
1F
100
AcDbEntity
  8
0
  6
Continuous
 62
   179
370
    25
100
AcDbLine
 10
198.6332395339
 20
250.9260865706
 30
0.0
 11
200.9426406107
 21
250.9260865706
 31
0.0
  0
LINE
  5
157
330
1F
100
AcDbEntity
  8
0
  6
Continuous
 62
   179
370
    25
100
AcDbLine
 10
197.4785389955
 20
252.9260865706
 30
0.0
 11
198.6332395339
 21
250.9260865706
 31
0.0
  0
LINE
  5
158
330
1F
100
AcDbEntity
  8
0
  6
Continuous
 62
   179
370
    25
100
AcDbLine
 10
198.6332395339
 20
254.9260865706
 30
0.0
 11
197.4785389955
 21
252.9260865706
 31
0.0
  0
LINE
  5
159
330
1F
100
AcDbEntity
  8
0
  6
Continuous
 62
   179
370
    25
100
AcDbLine
 10
200.9426406107
 20
254.9260865706
 30
0.0
 11
198.6332395339
 21
254.9260865706
 31
0.0
  0
LINE
  5
15A
330
1F
100
AcDbEntity
  8
0
  6
Continuous
 62
   179
370
    25
100
AcDbLine
 10
190.0973411491
 20
259.8542898009
 30
0.0
 11
188.9426406107
 21
261.8542898009
 31
0.0
  0
LINE
  5
15B
330
1F
100
AcDbEntity
  8
0
  6
Continuous
 62
   179
370
    25
100
AcDbLine
 10
188.9426406107
 20
257.8542898009
 30
0.0
 11
190.0973411491
 21
259.8542898009
 31
0.0
  0
LINE
  5
15C
330
1F
100
AcDbEntity
  8
0
  6
Continuous
 62
   179
370
    25
100
AcDbLine
 10
186.6332395339
 20
257.8542898009
 30
0.0
 11
188.9426406107
 21
257.8542898009
 31
0.0
  0
LINE
  5
15D
330
1F
100
AcDbEntity
  8
0
  6
Continuous
 62
   179
370
    25
100
AcDbLine
 10
185.4785389955
 20
259.8542898009
 30
0.0
 11
186.6332395339
 21
257.8542898009
 31
0.0
  0
LINE
  5
15E
330
1F
100
AcDbEntity
  8
0
  6
Continuous
 62
   179
370
    25
100
AcDbLine
 10
186.6332395339
 20
261.8542898009
 30
0.0
 11
185.4785389955
 21
259.8542898009
 31
0.0
  0
LINE
  5
15F
330
1F
100
AcDbEntity
  8
0
  6
Continuous
 62
   179
370
    25
100
AcDbLine
 10
188.9426406107
 20
261.8542898009
 30
0.0
 11
186.6332395339
 21
261.8542898009
 31
0.0
  0
LINE
  5
160
330
1F
100
AcDbEntity
  8
0
  6
Continuous
 62
   179
370
    25
100
AcDbLine
 10
190.6332395339
 20
268.7824930312
 30
0.0
 11
189.4785389955
 21
266.7824930312
 31
0.0
  0
LINE
  5
161
330
1F
100
AcDbEntity
  8
0
  6
Continuous
 62
   179
370
    25
100
AcDbLine
 10
192.9426406107
 20
268.7824930312
 30
0.0
 11
190.6332395339
 21
268.7824930312
 31
0.0
  0
LINE
  5
162
330
1F
100
AcDbEntity
  8
0
  6
Continuous
 62
   179
370
    25
100
AcDbLine
 10
194.0973411491
 20
266.7824930312
 30
0.0
 11
192.9426406107
 21
268.7824930312
 31
0.0
  0
LINE
  5
163
330
1F
100
AcDbEntity
  8
0
  6
Continuous
 62
   179
370
    25
100
AcDbLine
 10
192.9426406107
 20
264.7824930312
 30
0.0
 11
194.0973411491
 21
266.7824930312
 31
0.0
  0
LINE
  5
164
330
1F
100
AcDbEntity
  8
0
  6
Continuous
 62
   179
370
    25
100
AcDbLine
 10
190.6332395339
 20
264.7824930312
 30
0.0
 11
192.9426406107
 21
264.7824930312
 31
0.0
  0
LINE
  5
165
330
1F
100
AcDbEntity
  8
0
  6
Continuous
 62
   179
370
    25
100
AcDbLine
 10
189.4785389955
 20
266.7824930312
 30
0.0
 11
190.6332395339
 21
264.7824930312
 31
0.0
  0
LINE
  5
166
330
1F
100
AcDbEntity
  8
0
  6
Continuous
 62
   179
370
    25
100
AcDbLine
 10
204.9426406107
 20
261.8542898009
 30
0.0
 11
202.6332395339
 21
261.8542898009
 31
0.0
  0
LINE
  5
167
330
1F
100
AcDbEntity
  8
0
  6
Continuous
 62
   179
370
    25
100
AcDbLine
 10
206.0973411491
 20
259.8542898009
 30
0.0
 11
204.9426406107
 21
261.8542898009
 31
0.0
  0
LINE
  5
168
330
1F
100
AcDbEntity
  8
0
  6
Continuous
 62
   179
370
    25
100
AcDbLine
 10
204.9426406107
 20
257.8542898009
 30
0.0
 11
206.0973411491
 21
259.8542898009
 31
0.0
  0
LINE
  5
169
330
1F
100
AcDbEntity
  8
0
  6
Continuous
 62
   179
370
    25
100
AcDbLine
 10
202.6332395339
 20
257.8542898009
 30
0.0
 11
204.9426406107
 21
257.8542898009
 31
0.0
  0
LINE
  5
16A
330
1F
100
AcDbEntity
  8
0
  6
Continuous
 62
   179
370
    25
100
AcDbLine
 10
201.4785389955
 20
259.8542898009
 30
0.0
 11
202.6332395339
 21
257.8542898009
 31
0.0
  0
LINE
  5
16B
330
1F
100
AcDbEntity
  8
0
  6
Continuous
 62
   179
370
    25
100
AcDbLine
 10
202.6332395339
 20
261.8542898009
 30
0.0
 11
201.4785389955
 21
259.8542898009
 31
0.0
  0
LINE
  5
16C
330
1F
100
AcDbEntity
  8
0
  6
Continuous
 62
   179
370
    25
100
AcDbLine
 10
369.088092019
 20
261.8542898009
 30
0.0
 11
366.7786909423
 21
261.8542898009
 31
0.0
  0
LINE
  5
16D
330
1F
100
AcDbEntity
  8
0
  6
Continuous
 62
   179
370
    25
100
AcDbLine
 10
370.2427925574
 20
259.8542898009
 30
0.0
 11
369.088092019
 21
261.8542898009
 31
0.0
  0
LINE
  5
16E
330
1F
100
AcDbEntity
  8
0
  6
Continuous
 62
   179
370
    25
100
AcDbLine
 10
210.2453400723
 20
207.9982898009
 30
0.0
 11
210.2453400723
 21
219.0982898009
 31
0.0
  0
LINE
  5
16F
330
1F
100
AcDbEntity
  8
0
  6
Continuous
 62
   179
370
    25
100
AcDbLine
 10
202.6453400723
 20
207.9982898009
 30
0.0
 11
210.2453400723
 21
207.9982898009
 31
0.0
  0
LINE
  5
170
330
1F
100
AcDbEntity
  8
0
  6
Continuous
 62
   179
370
    25
100
AcDbLine
 10
370.7786909423
 20
264.7824930312
 30
0.0
 11
373.088092019
 21
264.7824930312
 31
0.0
  0
LINE
  5
171
330
1F
100
AcDbEntity
  8
0
  6
Continuous
 62
   179
370
    25
100
AcDbLine
 10
369.6239904039
 20
266.7824930312
 30
0.0
 11
370.7786909423
 21
264.7824930312
 31
0.0
  0
LINE
  5
172
330
1F
100
AcDbEntity
  8
0
  6
Continuous
 62
   179
370
    25
100
AcDbLine
 10
194.6332395339
 20
257.8542898009
 30
0.0
 11
196.9426406107
 21
257.8542898009
 31
0.0
  0
LINE
  5
173
330
1F
100
AcDbEntity
  8
0
  6
Continuous
 62
   179
370
    25
100
AcDbLine
 10
192.9426406107
 20
250.9260865706
 30
0.0
 11
194.0973411491
 21
252.9260865706
 31
0.0
  0
LINE
  5
174
330
1F
100
AcDbEntity
  8
0
  6
Continuous
 62
   179
370
    25
100
AcDbLine
 10
374.7786909423
 20
261.8542898009
 30
0.0
 11
373.6239904039
 21
259.8542898009
 31
0.0
  0
LINE
  5
175
330
1F
100
AcDbEntity
  8
0
  6
Continuous
 62
   179
370
    25
100
AcDbLine
 10
377.088092019
 20
261.8542898009
 30
0.0
 11
374.7786909423
 21
261.8542898009
 31
0.0
  0
LINE
  5
176
330
1F
100
AcDbEntity
  8
0
  6
Continuous
 62
   179
370
    25
100
AcDbLine
 10
378.2427925574
 20
259.8542898009
 30
0.0
 11
377.088092019
 21
261.8542898009
 31
0.0
  0
LINE
  5
177
330
1F
100
AcDbEntity
  8
0
  6
Continuous
 62
   179
370
    25
100
AcDbLine
 10
377.088092019
 20
257.8542898009
 30
0.0
 11
378.2427925574
 21
259.8542898009
 31
0.0
  0
LINE
  5
178
330
1F
100
AcDbEntity
  8
0
  6
Continuous
 62
   179
370
    25
100
AcDbLine
 10
373.088092019
 20
264.7824930312
 30
0.0
 11
374.2427925574
 21
266.7824930312
 31
0.0
  0
LINE
  5
179
330
1F
100
AcDbEntity
  8
0
  6
Continuous
 62
   179
370
    25
100
AcDbLine
 10
374.2427925574
 20
266.7824930312
 30
0.0
 11
373.088092019
 21
268.7824930312
 31
0.0
  0
LINE
  5
17A
330
1F
100
AcDbEntity
  8
0
  6
Continuous
 62
   179
370
    25
100
AcDbLine
 10
202.6453400723
 20
219.0982898009
 30
0.0
 11
202.6453400723
 21
207.9982898009
 31
0.0
  0
LINE
  5
17B
330
1F
100
AcDbEntity
  8
0
  6
Continuous
 62
   179
370
    25
100
AcDbLine
 10
370.7786909423
 20
268.7824930312
 30
0.0
 11
369.6239904039
 21
266.7824930312
 31
0.0
  0
LINE
  5
17C
330
1F
100
AcDbEntity
  8
0
  6
Continuous
 62
   179
370
    25
100
AcDbLine
 10
373.088092019
 20
268.7824930312
 30
0.0
 11
370.7786909423
 21
268.7824930312
 31
0.0
  0
LINE
  5
17D
330
1F
100
AcDbEntity
  8
0
  6
Continuous
 62
   179
370
    25
100
AcDbLine
 10
373.6239904039
 20
259.8542898009
 30
0.0
 11
374.7786909423
 21
257.8542898009
 31
0.0
  0
LINE
  5
17E
330
1F
100
AcDbEntity
  8
0
  6
Continuous
 62
   179
370
    25
100
AcDbLine
 10
210.2453400723
 20
219.0982898009
 30
0.0
 11
202.6453400723
 21
219.0982898009
 31
0.0
  0
LINE
  5
17F
330
1F
100
AcDbEntity
  8
0
  6
Continuous
 62
     7
370
    18
100
AcDbLine
 10
348.3379400723
 20
113.4650557052
 30
0.0
 11
373.3379400723
 21
113.4650557052
 31
0.0
  0
LINE
  5
180
330
1F
100
AcDbEntity
  8
0
  6
Continuous
 62
     7
370
    18
100
AcDbLine
 10
373.3379400723
 20
113.4650557052
 30
0.0
 11
373.3379400723
 21
110.7650557052
 31
0.0
  0
LINE
  5
181
330
1F
100
AcDbEntity
  8
0
  6
Continuous
 62
     7
370
    18
100
AcDbLine
 10
398.3379400723
 20
102.7650557052
 30
0.0
 11
398.3379400723
 21
94.7650557052
 31
0.0
  0
LINE
  5
182
330
1F
100
AcDbEntity
  8
0
  6
Continuous
 62
     7
370
    18
100
AcDbLine
 10
398.3379400723
 20
102.7650557052
 30
0.0
 11
398.3379400723
 21
94.7650557052
 31
0.0
  0
LINE
  5
183
330
1F
100
AcDbEntity
  8
0
  6
Continuous
 62
     7
370
    18
100
AcDbLine
 10
215.0379400723
 20
110.7650557052
 30
0.0
 11
240.0379400723
 21
110.7650557052
 31
0.0
  0
LINE
  5
184
330
1F
100
AcDbEntity
  8
0
  6
Continuous
 62
     7
370
    18
100
AcDbLine
 10
190.0379400723
 20
113.4650557052
 30
0.0
 11
190.0379400723
 21
110.7650557052
 31
0.0
  0
LINE
  5
185
330
1F
100
AcDbEntity
  8
0
  6
Continuous
 62
     7
370
    18
100
AcDbLine
 10
398.3379400723
 20
94.7650557052
 30
0.0
 11
395.6379400723
 21
94.7650557052
 31
0.0
  0
LINE
  5
186
330
1F
100
AcDbEntity
  8
0
  6
Continuous
 62
     7
370
    18
100
AcDbLine
 10
167.7379400723
 20
102.7650557052
 30
0.0
 11
167.7379400723
 21
110.7650557052
 31
0.0
  0
LINE
  5
187
330
1F
100
AcDbEntity
  8
0
  6
Continuous
 62
     7
370
    18
100
AcDbLine
 10
398.3379400723
 20
102.7650557052
 30
0.0
 11
395.6379400723
 21
102.7650557052
 31
0.0
  0
LINE
  5
188
330
1F
100
AcDbEntity
  8
0
  6
Continuous
 62
     7
370
    18
100
AcDbLine
 10
323.3379400723
 20
110.7650557052
 30
0.0
 11
348.3379400723
 21
110.7650557052
 31
0.0
  0
LINE
  5
189
330
1F
100
AcDbEntity
  8
0
  6
Continuous
 62
     7
370
    18
100
AcDbLine
 10
240.0379400723
 20
113.4650557052
 30
0.0
 11
240.0379400723
 21
110.7650557052
 31
0.0
  0
LINE
  5
18A
330
1F
100
AcDbEntity
  8
0
  6
Continuous
 62
     7
370
    18
100
AcDbLine
 10
167.7379400723
 20
110.7650557052
 30
0.0
 11
167.7379400723
 21
102.7650557052
 31
0.0
  0
LINE
  5
18B
330
1F
100
AcDbEntity
  8
0
  6
Continuous
 62
     7
370
    18
100
AcDbLine
 10
398.3379400723
 20
94.7650557052
 30
0.0
 11
165.0379400723
 21
94.7650557052
 31
0.0
  0
LINE
  5
18C
330
1F
100
AcDbEntity
  8
0
  6
Continuous
 62
     7
370
    18
100
AcDbLine
 10
265.0379400723
 20
110.7650557052
 30
0.0
 11
298.3379400723
 21
110.7650557052
 31
0.0
  0
LINE
  5
18D
330
1F
100
AcDbEntity
  8
0
  6
Continuous
 62
     7
370
    18
100
AcDbLine
 10
165.0379400723
 20
102.7650557052
 30
0.0
 11
167.7379400723
 21
102.7650557052
 31
0.0
  0
LINE
  5
18E
330
1F
100
AcDbEntity
  8
0
  6
Continuous
 62
     7
370
    18
100
AcDbLine
 10
165.0379400723
 20
102.7650557052
 30
0.0
 11
165.0379400723
 21
94.7650557052
 31
0.0
  0
LINE
  5
18F
330
1F
100
AcDbEntity
  8
0
  6
Continuous
 62
     7
370
    18
100
AcDbLine
 10
298.3379400723
 20
113.4650557052
 30
0.0
 11
298.3379400723
 21
110.7650557052
 31
0.0
  0
LINE
  5
190
330
1F
100
AcDbEntity
  8
0
  6
Continuous
 62
     7
370
    18
100
AcDbLine
 10
167.7379400723
 20
110.7650557052
 30
0.0
 11
190.0379400723
 21
110.7650557052
 31
0.0
  0
LINE
  5
191
330
1F
100
AcDbEntity
  8
0
  6
Continuous
 62
     7
370
    18
100
AcDbLine
 10
395.6379400723
 20
110.7650557052
 30
0.0
 11
395.6379400723
 21
102.7650557052
 31
0.0
  0
LINE
  5
192
330
1F
100
AcDbEntity
  8
0
  6
Continuous
 62
     7
370
    18
100
AcDbLine
 10
298.3379400723
 20
113.4650557052
 30
0.0
 11
323.3379400723
 21
113.4650557052
 31
0.0
  0
LINE
  5
193
330
1F
100
AcDbEntity
  8
0
  6
Continuous
 62
     7
370
    18
100
AcDbLine
 10
265.0379400723
 20
113.4650557052
 30
0.0
 11
265.0379400723
 21
110.7650557052
 31
0.0
  0
LINE
  5
194
330
1F
100
AcDbEntity
  8
0
  6
Continuous
 62
     7
370
    18
100
AcDbLine
 10
240.0379400723
 20
113.4650557052
 30
0.0
 11
265.0379400723
 21
113.4650557052
 31
0.0
  0
LINE
  5
195
330
1F
100
AcDbEntity
  8
0
  6
Continuous
 62
     7
370
    18
100
AcDbLine
 10
323.3379400723
 20
113.4650557052
 30
0.0
 11
323.3379400723
 21
110.7650557052
 31
0.0
  0
LINE
  5
196
330
1F
100
AcDbEntity
  8
0
  6
Continuous
 62
     7
370
    18
100
AcDbLine
 10
373.3379400723
 20
110.7650557052
 30
0.0
 11
395.6379400723
 21
110.7650557052
 31
0.0
  0
LINE
  5
197
330
1F
100
AcDbEntity
  8
0
  6
Continuous
 62
     7
370
    18
100
AcDbLine
 10
348.3379400723
 20
113.4650557052
 30
0.0
 11
348.3379400723
 21
110.7650557052
 31
0.0
  0
LINE
  5
198
330
1F
100
AcDbEntity
  8
0
  6
Continuous
 62
     7
370
    18
100
AcDbLine
 10
215.0379400723
 20
113.4650557052
 30
0.0
 11
215.0379400723
 21
110.7650557052
 31
0.0
  0
LINE
  5
199
330
1F
100
AcDbEntity
  8
0
  6
Continuous
 62
     7
370
    25
100
AcDbLine
 10
0.0
 20
5.0
 30
0.0
 11
589.5
 21
5.0
 31
0.0
  0
LINE
  5
19A
330
1F
100
AcDbEntity
  8
0
  6
Continuous
 62
     7
370
    25
100
AcDbLine
 10
589.5
 20
5.0
 30
0.0
 11
589.5
 21
415.5250495129
 31
0.0
  0
LINE
  5
19B
330
1F
100
AcDbEntity
  8
0
  6
Continuous
 62
     7
370
    25
100
AcDbLine
 10
589.5
 20
415.5250495129
 30
0.0
 11
12.5
 21
415.5250495129
 31
0.0
  0
LINE
  5
19C
330
1F
100
AcDbEntity
  8
0
  6
Continuous
 62
     7
370
    25
100
AcDbLine
 10
12.5
 20
415.5250495129
 30
0.0
 11
12.5
 21
5.0
 31
0.0
  0
LINE
  5
19D
330
1F
100
AcDbEntity
  8
0
  6
Continuous
 62
     7
370
    25
100
AcDbLine
 10
12.5
 20
409.5
 30
0.0
 11
42.5
 21
409.5
 31
0.0
  0
LINE
  5
19E
330
1F
100
AcDbEntity
  8
0
  6
Continuous
 62
     7
370
    25
100
AcDbLine
 10
42.5
 20
409.5
 30
0.0
 11
42.5
 21
415.5
 31
0.0
  0
LINE
  5
19F
330
1F
100
AcDbEntity
  8
0
  6
Continuous
 62
     7
370
    18
100
AcDbLine
 10
0.0
 20
0.0
 30
0.0
 11
594.5
 21
0.0
 31
0.0
  0
LINE
  5
1A0
330
1F
100
AcDbEntity
  8
0
  6
Continuous
 62
     7
370
    25
100
AcDbLine
 10
301.0
 20
420.5
 30
0.0
 11
301.0
 21
413.0
 31
0.0
  0
LINE
  5
1A1
330
1F
100
AcDbEntity
  8
0
  6
Continuous
 62
     7
370
    25
100
AcDbLine
 10
301.0
 20
0.0
 30
0.0
 11
301.0
 21
7.5
 31
0.0
  0
LINE
  5
1A2
330
1F
100
AcDbEntity
  8
0
  6
Continuous
 62
     7
370
    18
100
AcDbLine
 10
594.5
 20
0.0
 30
0.0
 11
594.5
 21
420.5
 31
0.0
  0
LINE
  5
1A3
330
1F
100
AcDbEntity
  8
0
  6
Continuous
 62
     7
370
    25
100
AcDbLine
 10
0.0
 20
210.25
 30
0.0
 11
15.0
 21
210.25
 31
0.0
  0
LINE
  5
1A4
330
1F
100
AcDbEntity
  8
0
  6
Continuous
 62
     7
370
    25
100
AcDbLine
 10
594.5
 20
210.25
 30
0.0
 11
587.0
 21
210.25
 31
0.0
  0
LINE
  5
1A5
330
1F
100
AcDbEntity
  8
0
  6
Continuous
 62
     7
370
    18
100
AcDbLine
 10
594.5
 20
420.5
 30
0.0
 11
0.0
 21
420.5
 31
0.0
  0
LINE
  5
1A6
330
1F
100
AcDbEntity
  8
0
  6
Continuous
 62
     7
370
    18
100
AcDbLine
 10
26.0
 20
420.5
 30
0.0
 11
26.0
 21
415.5250495129
 31
0.0
  0
LINE
  5
1A7
330
1F
100
AcDbEntity
  8
0
  6
Continuous
 62
     7
370
    18
100
AcDbLine
 10
51.0
 20
420.5
 30
0.0
 11
51.0
 21
415.5250495129
 31
0.0
  0
LINE
  5
1A8
330
1F
100
AcDbEntity
  8
0
  6
Continuous
 62
     7
370
    18
100
AcDbLine
 10
0.0
 20
420.5
 30
0.0
 11
0.0
 21
0.0
 31
0.0
  0
LINE
  5
1A9
330
1F
100
AcDbEntity
  8
0
  6
Continuous
 62
     7
370
    18
100
AcDbLine
 10
76.0
 20
420.5
 30
0.0
 11
76.0
 21
415.5250495129
 31
0.0
  0
LINE
  5
1AA
330
1F
100
AcDbEntity
  8
0
  6
Continuous
 62
     7
370
    18
100
AcDbLine
 10
101.0
 20
420.5
 30
0.0
 11
101.0
 21
415.5250495129
 31
0.0
  0
LINE
  5
1AB
330
1F
100
AcDbEntity
  8
0
  6
Continuous
 62
     7
370
    18
100
AcDbLine
 10
126.0
 20
420.5
 30
0.0
 11
126.0
 21
415.5250495129
 31
0.0
  0
LINE
  5
1AC
330
1F
100
AcDbEntity
  8
0
  6
Continuous
 62
     7
370
    18
100
AcDbLine
 10
151.0
 20
420.5
 30
0.0
 11
151.0
 21
415.5250495129
 31
0.0
  0
LINE
  5
1AD
330
1F
100
AcDbEntity
  8
0
  6
Continuous
 62
     7
370
    18
100
AcDbLine
 10
176.0
 20
420.5
 30
0.0
 11
176.0
 21
415.5250495129
 31
0.0
  0
LINE
  5
1AE
330
1F
100
AcDbEntity
  8
0
  6
Continuous
 62
     7
370
    18
100
AcDbLine
 10
201.0
 20
420.5
 30
0.0
 11
201.0
 21
415.5250495129
 31
0.0
  0
LINE
  5
1AF
330
1F
100
AcDbEntity
  8
0
  6
Continuous
 62
     7
370
    25
100
AcDbLine
 10
564.5
 20
19.0
 30
0.0
 11
564.5
 21
5.0
 31
0.0
  0
LINE
  5
1B0
330
1F
100
AcDbEntity
  8
0
  6
Continuous
 62
     7
370
    25
100
AcDbLine
 10
558.5
 20
24.0
 30
0.0
 11
558.5
 21
14.0
 31
0.0
  0
LINE
  5
1B1
330
1F
100
AcDbEntity
  8
0
  6
Continuous
 62
     7
370
    25
100
AcDbLine
 10
552.5
 20
24.0
 30
0.0
 11
552.5
 21
14.0
 31
0.0
  0
LINE
  5
1B2
330
1F
100
AcDbEntity
  8
0
  6
Continuous
 62
     7
370
    18
100
AcDbLine
 10
549.25
 20
19.0
 30
0.0
 11
549.25
 21
14.0
 31
0.0
  0
LINE
  5
1B3
330
1F
100
AcDbEntity
  8
0
  6
Continuous
 62
     7
370
    18
100
AcDbLine
 10
546.0
 20
19.0
 30
0.0
 11
546.0
 21
14.0
 31
0.0
  0
LINE
  5
1B4
330
1F
100
AcDbEntity
  8
0
  6
Continuous
 62
     7
370
    18
100
AcDbLine
 10
542.75
 20
19.0
 30
0.0
 11
542.75
 21
14.0
 31
0.0
  0
LINE
  5
1B5
330
1F
100
AcDbEntity
  8
0
  6
Continuous
 62
     7
370
    25
100
AcDbLine
 10
539.5
 20
24.0
 30
0.0
 11
589.5
 21
24.0
 31
0.0
  0
LINE
  5
1B6
330
1F
100
AcDbEntity
  8
0
  6
Continuous
 62
     7
370
    25
100
AcDbLine
 10
539.5
 20
14.0
 30
0.0
 11
589.5
 21
14.0
 31
0.0
  0
LINE
  5
1B7
330
1F
100
AcDbEntity
  8
0
  6
Continuous
 62
     7
370
    25
100
AcDbLine
 10
539.5030375002
 20
9.4912002106
 30
0.0
 11
589.5
 21
9.4912002106
 31
0.0
  0
LINE
  5
1B8
330
1F
100
AcDbEntity
  8
0
  6
Continuous
 62
     7
370
    25
100
AcDbLine
 10
517.5
 20
33.0
 30
0.0
 11
517.5
 21
19.0
 31
0.0
  0
LINE
  5
1B9
330
1F
100
AcDbEntity
  8
0
  6
Continuous
 62
     7
370
    25
100
AcDbLine
 10
509.5
 20
33.0
 30
0.0
 11
509.5
 21
19.0
 31
0.0
  0
LINE
  5
1BA
330
1F
100
AcDbEntity
  8
0
  6
Continuous
 62
     7
370
    25
100
AcDbLine
 10
504.5
 20
33.0
 30
0.0
 11
504.5
 21
19.0
 31
0.0
  0
LINE
  5
1BB
330
1F
100
AcDbEntity
  8
0
  6
Continuous
 62
     7
370
    25
100
AcDbLine
 10
564.5
 20
33.0
 30
0.0
 11
564.5
 21
19.0
 31
0.0
  0
LINE
  5
1BC
330
1F
100
AcDbEntity
  8
0
  6
Continuous
 62
     7
370
    25
100
AcDbLine
 10
539.5
 20
33.0
 30
0.0
 11
539.5
 21
5.0
 31
0.0
  0
LINE
  5
1BD
330
1F
100
AcDbEntity
  8
0
  6
Continuous
 62
     7
370
    25
100
AcDbLine
 10
531.5
 20
33.0
 30
0.0
 11
531.5
 21
5.0
 31
0.0
  0
LINE
  5
1BE
330
1F
100
AcDbEntity
  8
0
  6
Continuous
 62
     7
370
    25
100
AcDbLine
 10
525.5
 20
33.0
 30
0.0
 11
525.5
 21
5.0
 31
0.0
  0
LINE
  5
1BF
330
1F
100
AcDbEntity
  8
0
  6
Continuous
 62
     7
370
    25
100
AcDbLine
 10
519.5
 20
19.0
 30
0.0
 11
519.5
 21
5.0
 31
0.0
  0
LINE
  5
1C0
330
1F
100
AcDbEntity
  8
0
  6
Continuous
 62
     7
370
    25
100
AcDbLine
 10
511.5
 20
19.0
 30
0.0
 11
511.5
 21
5.0
 31
0.0
  0
LINE
  5
1C1
330
1F
100
AcDbEntity
  8
0
  6
Continuous
 62
     7
370
    25
100
AcDbLine
 10
505.5
 20
19.0
 30
0.0
 11
505.5
 21
5.0
 31
0.0
  0
LINE
  5
1C2
330
1F
100
AcDbEntity
  8
0
  6
Continuous
 62
     7
370
    18
100
AcDbLine
 10
499.5
 20
29.5
 30
0.0
 11
539.5
 21
29.5
 31
0.0
  0
LINE
  5
1C3
330
1F
100
AcDbEntity
  8
0
  6
Continuous
 62
     7
370
    18
100
AcDbLine
 10
499.5
 20
26.0
 30
0.0
 11
539.5
 21
26.0
 31
0.0
  0
LINE
  5
1C4
330
1F
100
AcDbEntity
  8
0
  6
Continuous
 62
     7
370
    25
100
AcDbLine
 10
499.5
 20
22.5
 30
0.0
 11
539.5
 21
22.5
 31
0.0
  0
LINE
  5
1C5
330
1F
100
AcDbEntity
  8
0
  6
Continuous
 62
     7
370
    25
100
AcDbLine
 10
499.5
 20
19.0
 30
0.0
 11
564.5
 21
19.0
 31
0.0
  0
LINE
  5
1C6
330
1F
100
AcDbEntity
  8
0
  6
Continuous
 62
     7
370
    25
100
AcDbLine
 10
499.5
 20
15.5
 30
0.0
 11
539.5
 21
15.5
 31
0.0
  0
LINE
  5
1C7
330
1F
100
AcDbEntity
  8
0
  6
Continuous
 62
     7
370
    25
100
AcDbLine
 10
499.5
 20
12.0
 30
0.0
 11
539.5
 21
12.0
 31
0.0
  0
LINE
  5
1C8
330
1F
100
AcDbEntity
  8
0
  6
Continuous
 62
     7
370
    25
100
AcDbLine
 10
499.5
 20
8.5
 30
0.0
 11
539.5
 21
8.5
 31
0.0
  0
LINE
  5
1C9
330
1F
100
AcDbEntity
  8
0
  6
Continuous
 62
     7
370
    25
100
AcDbLine
 10
499.5
 20
33.0
 30
0.0
 11
589.5
 21
33.0
 31
0.0
  0
LINE
  5
1CA
330
1F
100
AcDbEntity
  8
0
  6
Continuous
 62
     7
370
    25
100
AcDbLine
 10
499.5
 20
33.0
 30
0.0
 11
499.5
 21
5.0
 31
0.0
  0
LINE
  5
1CB
330
1F
100
AcDbEntity
  8
0
  6
Continuous
 62
     7
370
    18
100
AcDbLine
 10
0.0
 20
48.0
 30
0.0
 11
12.5
 21
48.0
 31
0.0
  0
LINE
  5
1CC
330
1F
100
AcDbEntity
  8
0
  6
Continuous
 62
     7
370
    18
100
AcDbLine
 10
0.0
 20
50.5
 30
0.0
 11
12.5
 21
50.5
 31
0.0
  0
LINE
  5
1CD
330
1F
100
AcDbEntity
  8
0
  6
Continuous
 62
     7
370
    18
100
AcDbLine
 10
0.0
 20
41.5
 30
0.0
 11
12.5
 21
41.5
 31
0.0
  0
LINE
  5
1CE
330
1F
100
AcDbEntity
  8
0
  6
Continuous
 62
     7
370
    18
100
AcDbLine
 10
0.0
 20
44.0
 30
0.0
 11
12.5
 21
44.0
 31
0.0
  0
LINE
  5
1CF
330
1F
100
AcDbEntity
  8
0
  6
Continuous
 62
     7
370
    18
100
AcDbLine
 10
0.0
 20
35.0
 30
0.0
 11
12.5
 21
35.0
 31
0.0
  0
LINE
  5
1D0
330
1F
100
AcDbEntity
  8
0
  6
Continuous
 62
     7
370
    18
100
AcDbLine
 10
0.0
 20
37.5
 30
0.0
 11
12.5
 21
37.5
 31
0.0
  0
LINE
  5
1D1
330
1F
100
AcDbEntity
  8
0
  6
Continuous
 62
     7
370
    18
100
AcDbLine
 10
0.0
 20
28.5
 30
0.0
 11
12.5
 21
28.5
 31
0.0
  0
LINE
  5
1D2
330
1F
100
AcDbEntity
  8
0
  6
Continuous
 62
     7
370
    18
100
AcDbLine
 10
0.0
 20
31.0
 30
0.0
 11
12.5
 21
31.0
 31
0.0
  0
LINE
  5
1D3
330
1F
100
AcDbEntity
  8
0
  6
Continuous
 62
     7
370
    18
100
AcDbLine
 10
0.0
 20
22.0
 30
0.0
 11
12.5
 21
22.0
 31
0.0
  0
LINE
  5
1D4
330
1F
100
AcDbEntity
  8
0
  6
Continuous
 62
     7
370
    18
100
AcDbLine
 10
0.0
 20
24.5
 30
0.0
 11
12.5
 21
24.5
 31
0.0
  0
LINE
  5
1D5
330
1F
100
AcDbEntity
  8
0
  6
Continuous
 62
     7
370
    18
100
AcDbLine
 10
0.0
 20
15.5
 30
0.0
 11
12.5
 21
15.5
 31
0.0
  0
LINE
  5
1D6
330
1F
100
AcDbEntity
  8
0
  6
Continuous
 62
     7
370
    18
100
AcDbLine
 10
0.0
 20
18.0
 30
0.0
 11
12.5
 21
18.0
 31
0.0
  0
LINE
  5
1D7
330
1F
100
AcDbEntity
  8
0
  6
Continuous
 62
     7
370
    18
100
AcDbLine
 10
0.0
 20
11.5
 30
0.0
 11
12.5
 21
11.5
 31
0.0
  0
LINE
  5
1D8
330
1F
100
AcDbEntity
  8
0
  6
Continuous
 62
     7
370
    18
100
AcDbLine
 10
0.0
 20
9.0
 30
0.0
 11
12.5
 21
9.0
 31
0.0
  0
LINE
  5
1D9
330
1F
100
AcDbEntity
  8
0
  6
Continuous
 62
     7
370
    18
100
AcDbLine
 10
0.0
 20
54.5
 30
0.0
 11
12.5
 21
54.5
 31
0.0
  0
LINE
  5
1DA
330
1F
100
AcDbEntity
  8
0
  6
Continuous
 62
     7
370
    18
100
AcDbLine
 10
0.0
 20
57.0
 30
0.0
 11
12.5
 21
57.0
 31
0.0
  0
LINE
  5
1DB
330
1F
100
AcDbEntity
  8
0
  6
Continuous
 62
     7
370
    18
100
AcDbLine
 10
226.0
 20
420.5
 30
0.0
 11
226.0
 21
415.5250495129
 31
0.0
  0
LINE
  5
1DC
330
1F
100
AcDbEntity
  8
0
  6
Continuous
 62
     7
370
    18
100
AcDbLine
 10
251.0
 20
420.5
 30
0.0
 11
251.0
 21
415.5250495129
 31
0.0
  0
LINE
  5
1DD
330
1F
100
AcDbEntity
  8
0
  6
Continuous
 62
     7
370
    18
100
AcDbLine
 10
276.0
 20
420.5
 30
0.0
 11
276.0
 21
415.5250495129
 31
0.0
  0
LINE
  5
1DE
330
1F
100
AcDbEntity
  8
0
  6
Continuous
 62
     7
370
    18
100
AcDbLine
 10
326.0
 20
420.5
 30
0.0
 11
326.0
 21
415.5250495129
 31
0.0
  0
LINE
  5
1DF
330
1F
100
AcDbEntity
  8
0
  6
Continuous
 62
     7
370
    18
100
AcDbLine
 10
351.0
 20
420.5
 30
0.0
 11
351.0
 21
415.5250495129
 31
0.0
  0
LINE
  5
1E0
330
1F
100
AcDbEntity
  8
0
  6
Continuous
 62
     7
370
    18
100
AcDbLine
 10
376.0
 20
420.5
 30
0.0
 11
376.0
 21
415.5250495129
 31
0.0
  0
LINE
  5
1E1
330
1F
100
AcDbEntity
  8
0
  6
Continuous
 62
     7
370
    18
100
AcDbLine
 10
401.0
 20
420.5
 30
0.0
 11
401.0
 21
415.5250495129
 31
0.0
  0
LINE
  5
1E2
330
1F
100
AcDbEntity
  8
0
  6
Continuous
 62
     7
370
    18
100
AcDbLine
 10
426.0
 20
420.5
 30
0.0
 11
426.0
 21
415.5250495129
 31
0.0
  0
LINE
  5
1E3
330
1F
100
AcDbEntity
  8
0
  6
Continuous
 62
     7
370
    18
100
AcDbLine
 10
451.0
 20
420.5
 30
0.0
 11
451.0
 21
415.5250495129
 31
0.0
  0
LINE
  5
1E4
330
1F
100
AcDbEntity
  8
0
  6
Continuous
 62
     7
370
    18
100
AcDbLine
 10
476.0
 20
420.5
 30
0.0
 11
476.0
 21
415.5250495129
 31
0.0
  0
LINE
  5
1E5
330
1F
100
AcDbEntity
  8
0
  6
Continuous
 62
     7
370
    18
100
AcDbLine
 10
501.0
 20
420.5
 30
0.0
 11
501.0
 21
415.5250495129
 31
0.0
  0
LINE
  5
1E6
330
1F
100
AcDbEntity
  8
0
  6
Continuous
 62
     7
370
    18
100
AcDbLine
 10
526.0
 20
420.5
 30
0.0
 11
526.0
 21
415.5250495129
 31
0.0
  0
LINE
  5
1E7
330
1F
100
AcDbEntity
  8
0
  6
Continuous
 62
     7
370
    18
100
AcDbLine
 10
551.0
 20
420.5
 30
0.0
 11
551.0
 21
415.5250495129
 31
0.0
  0
LINE
  5
1E8
330
1F
100
AcDbEntity
  8
0
  6
Continuous
 62
     7
370
    18
100
AcDbLine
 10
576.0
 20
420.5
 30
0.0
 11
576.0
 21
415.5250495129
 31
0.0
  0
LINE
  5
1E9
330
1F
100
AcDbEntity
  8
0
  6
Continuous
 62
     7
370
    18
100
AcDbLine
 10
594.5
 20
385.25
 30
0.0
 11
589.5
 21
385.25
 31
0.0
  0
LINE
  5
1EA
330
1F
100
AcDbEntity
  8
0
  6
Continuous
 62
     7
370
    18
100
AcDbLine
 10
594.5
 20
360.25
 30
0.0
 11
589.5
 21
360.25
 31
0.0
  0
LINE
  5
1EB
330
1F
100
AcDbEntity
  8
0
  6
Continuous
 62
     7
370
    25
100
AcDbLine
 10
552.5
 20
9.4912002106
 30
0.0
 11
552.5
 21
5.0
 31
0.0
  0
LINE
  5
1EC
330
1F
100
AcDbEntity
  8
0
  6
Continuous
 62
     7
370
    18
100
AcDbLine
 10
594.5
 20
335.25
 30
0.0
 11
589.5
 21
335.25
 31
0.0
  0
LINE
  5
1ED
330
1F
100
AcDbEntity
  8
0
  6
Continuous
 62
     7
370
    18
100
AcDbLine
 10
594.5
 20
310.25
 30
0.0
 11
589.5
 21
310.25
 31
0.0
  0
LINE
  5
1EE
330
1F
100
AcDbEntity
  8
0
  6
Continuous
 62
     7
370
    18
100
AcDbLine
 10
594.5
 20
285.25
 30
0.0
 11
589.5
 21
285.25
 31
0.0
  0
LINE
  5
1EF
330
1F
100
AcDbEntity
  8
0
  6
Continuous
 62
     7
370
    18
100
AcDbLine
 10
594.5
 20
260.25
 30
0.0
 11
589.5
 21
260.25
 31
0.0
  0
LINE
  5
1F0
330
1F
100
AcDbEntity
  8
0
  6
Continuous
 62
     7
370
    18
100
AcDbLine
 10
594.5
 20
235.25
 30
0.0
 11
589.5
 21
235.25
 31
0.0
  0
LINE
  5
1F1
330
1F
100
AcDbEntity
  8
0
  6
Continuous
 62
     7
370
    18
100
AcDbLine
 10
594.5
 20
185.25
 30
0.0
 11
589.5
 21
185.25
 31
0.0
  0
LINE
  5
1F2
330
1F
100
AcDbEntity
  8
0
  6
Continuous
 62
     7
370
    18
100
AcDbLine
 10
594.5
 20
160.25
 30
0.0
 11
589.5
 21
160.25
 31
0.0
  0
LINE
  5
1F3
330
1F
100
AcDbEntity
  8
0
  6
Continuous
 62
     7
370
    18
100
AcDbLine
 10
594.5
 20
135.25
 30
0.0
 11
589.5
 21
135.25
 31
0.0
  0
LINE
  5
1F4
330
1F
100
AcDbEntity
  8
0
  6
Continuous
 62
     7
370
    18
100
AcDbLine
 10
594.5
 20
110.25
 30
0.0
 11
589.5
 21
110.25
 31
0.0
  0
LINE
  5
1F5
330
1F
100
AcDbEntity
  8
0
  6
Continuous
 62
     7
370
    18
100
AcDbLine
 10
594.5
 20
85.25
 30
0.0
 11
589.5
 21
85.25
 31
0.0
  0
LINE
  5
1F6
330
1F
100
AcDbEntity
  8
0
  6
Continuous
 62
     7
370
    18
100
AcDbLine
 10
594.5
 20
60.25
 30
0.0
 11
589.5
 21
60.25
 31
0.0
  0
LINE
  5
1F7
330
1F
100
AcDbEntity
  8
0
  6
Continuous
 62
     7
370
    18
100
AcDbLine
 10
594.5
 20
35.25
 30
0.0
 11
589.5
 21
35.25
 31
0.0
  0
LINE
  5
1F8
330
1F
100
AcDbEntity
  8
0
  6
Continuous
 62
     7
370
    18
100
AcDbLine
 10
576.0
 20
0.0
 30
0.0
 11
576.0
 21
5.0
 31
0.0
  0
LINE
  5
1F9
330
1F
100
AcDbEntity
  8
0
  6
Continuous
 62
     7
370
    18
100
AcDbLine
 10
551.0
 20
0.0
 30
0.0
 11
551.0
 21
5.0
 31
0.0
  0
LINE
  5
1FA
330
1F
100
AcDbEntity
  8
0
  6
Continuous
 62
     7
370
    18
100
AcDbLine
 10
526.0
 20
0.0
 30
0.0
 11
526.0
 21
5.0
 31
0.0
  0
LINE
  5
1FB
330
1F
100
AcDbEntity
  8
0
  6
Continuous
 62
     7
370
    18
100
AcDbLine
 10
501.0
 20
0.0
 30
0.0
 11
501.0
 21
5.0
 31
0.0
  0
LINE
  5
1FC
330
1F
100
AcDbEntity
  8
0
  6
Continuous
 62
     7
370
    18
100
AcDbLine
 10
476.0
 20
0.0
 30
0.0
 11
476.0
 21
5.0
 31
0.0
  0
LINE
  5
1FD
330
1F
100
AcDbEntity
  8
0
  6
Continuous
 62
     7
370
    18
100
AcDbLine
 10
451.0
 20
0.0
 30
0.0
 11
451.0
 21
5.0
 31
0.0
  0
LINE
  5
1FE
330
1F
100
AcDbEntity
  8
0
  6
Continuous
 62
     7
370
    18
100
AcDbLine
 10
426.0
 20
0.0
 30
0.0
 11
426.0
 21
5.0
 31
0.0
  0
LINE
  5
1FF
330
1F
100
AcDbEntity
  8
0
  6
Continuous
 62
     7
370
    18
100
AcDbLine
 10
401.0
 20
0.0
 30
0.0
 11
401.0
 21
5.0
 31
0.0
  0
LINE
  5
200
330
1F
100
AcDbEntity
  8
0
  6
Continuous
 62
     7
370
    18
100
AcDbLine
 10
376.0
 20
0.0
 30
0.0
 11
376.0
 21
5.0
 31
0.0
  0
LINE
  5
201
330
1F
100
AcDbEntity
  8
0
  6
Continuous
 62
     7
370
    18
100
AcDbLine
 10
351.0
 20
0.0
 30
0.0
 11
351.0
 21
5.0
 31
0.0
  0
LINE
  5
202
330
1F
100
AcDbEntity
  8
0
  6
Continuous
 62
     7
370
    18
100
AcDbLine
 10
326.0
 20
0.0
 30
0.0
 11
326.0
 21
5.0
 31
0.0
  0
LINE
  5
203
330
1F
100
AcDbEntity
  8
0
  6
Continuous
 62
     7
370
    18
100
AcDbLine
 10
276.0
 20
0.0
 30
0.0
 11
276.0
 21
5.0
 31
0.0
  0
LINE
  5
204
330
1F
100
AcDbEntity
  8
0
  6
Continuous
 62
     7
370
    18
100
AcDbLine
 10
251.0
 20
0.0
 30
0.0
 11
251.0
 21
5.0
 31
0.0
  0
LINE
  5
205
330
1F
100
AcDbEntity
  8
0
  6
Continuous
 62
     7
370
    18
100
AcDbLine
 10
226.0
 20
0.0
 30
0.0
 11
226.0
 21
5.0
 31
0.0
  0
LINE
  5
206
330
1F
100
AcDbEntity
  8
0
  6
Continuous
 62
     7
370
    18
100
AcDbLine
 10
201.0
 20
0.0
 30
0.0
 11
201.0
 21
5.0
 31
0.0
  0
LINE
  5
207
330
1F
100
AcDbEntity
  8
0
  6
Continuous
 62
     7
370
    18
100
AcDbLine
 10
176.0
 20
0.0
 30
0.0
 11
176.0
 21
5.0
 31
0.0
  0
LINE
  5
208
330
1F
100
AcDbEntity
  8
0
  6
Continuous
 62
     7
370
    18
100
AcDbLine
 10
151.0
 20
0.0
 30
0.0
 11
151.0
 21
5.0
 31
0.0
  0
LINE
  5
209
330
1F
100
AcDbEntity
  8
0
  6
Continuous
 62
     7
370
    18
100
AcDbLine
 10
126.0
 20
0.0
 30
0.0
 11
126.0
 21
5.0
 31
0.0
  0
LINE
  5
20A
330
1F
100
AcDbEntity
  8
0
  6
Continuous
 62
     7
370
    18
100
AcDbLine
 10
101.0
 20
0.0
 30
0.0
 11
101.0
 21
5.0
 31
0.0
  0
LINE
  5
20B
330
1F
100
AcDbEntity
  8
0
  6
Continuous
 62
     7
370
    18
100
AcDbLine
 10
76.0
 20
0.0
 30
0.0
 11
76.0
 21
5.0
 31
0.0
  0
LINE
  5
20C
330
1F
100
AcDbEntity
  8
0
  6
Continuous
 62
     7
370
    18
100
AcDbLine
 10
51.0
 20
0.0
 30
0.0
 11
51.0
 21
5.0
 31
0.0
  0
LINE
  5
20D
330
1F
100
AcDbEntity
  8
0
  6
Continuous
 62
     7
370
    18
100
AcDbLine
 10
26.0
 20
0.0
 30
0.0
 11
26.0
 21
5.0
 31
0.0
  0
LINE
  5
20E
330
1F
100
AcDbEntity
  8
0
  6
Continuous
 62
     7
370
    18
100
AcDbLine
 10
0.0
 20
60.25
 30
0.0
 11
12.5
 21
60.25
 31
0.0
  0
LINE
  5
20F
330
1F
100
AcDbEntity
  8
0
  6
Continuous
 62
     7
370
    18
100
AcDbLine
 10
0.0
 20
85.25
 30
0.0
 11
12.5
 21
85.25
 31
0.0
  0
LINE
  5
210
330
1F
100
AcDbEntity
  8
0
  6
Continuous
 62
     7
370
    18
100
AcDbLine
 10
0.0
 20
110.25
 30
0.0
 11
12.5
 21
110.25
 31
0.0
  0
LINE
  5
211
330
1F
100
AcDbEntity
  8
0
  6
Continuous
 62
     7
370
    18
100
AcDbLine
 10
0.0
 20
135.25
 30
0.0
 11
12.5
 21
135.25
 31
0.0
  0
LINE
  5
212
330
1F
100
AcDbEntity
  8
0
  6
Continuous
 62
     7
370
    18
100
AcDbLine
 10
0.0
 20
160.25
 30
0.0
 11
12.5
 21
160.25
 31
0.0
  0
LINE
  5
213
330
1F
100
AcDbEntity
  8
0
  6
Continuous
 62
     7
370
    18
100
AcDbLine
 10
0.0
 20
185.25
 30
0.0
 11
12.5
 21
185.25
 31
0.0
  0
LINE
  5
214
330
1F
100
AcDbEntity
  8
0
  6
Continuous
 62
     7
370
    18
100
AcDbLine
 10
0.0
 20
235.25
 30
0.0
 11
12.5
 21
235.25
 31
0.0
  0
LINE
  5
215
330
1F
100
AcDbEntity
  8
0
  6
Continuous
 62
     7
370
    18
100
AcDbLine
 10
0.0
 20
260.25
 30
0.0
 11
12.5
 21
260.25
 31
0.0
  0
LINE
  5
216
330
1F
100
AcDbEntity
  8
0
  6
Continuous
 62
     7
370
    18
100
AcDbLine
 10
0.0
 20
285.25
 30
0.0
 11
12.5
 21
285.25
 31
0.0
  0
LINE
  5
217
330
1F
100
AcDbEntity
  8
0
  6
Continuous
 62
     7
370
    18
100
AcDbLine
 10
0.0
 20
310.25
 30
0.0
 11
12.5
 21
310.25
 31
0.0
  0
LINE
  5
218
330
1F
100
AcDbEntity
  8
0
  6
Continuous
 62
     7
370
    18
100
AcDbLine
 10
0.0
 20
335.25
 30
0.0
 11
12.5
 21
335.25
 31
0.0
  0
LINE
  5
219
330
1F
100
AcDbEntity
  8
0
  6
Continuous
 62
     7
370
    18
100
AcDbLine
 10
0.0
 20
360.25
 30
0.0
 11
12.5
 21
360.25
 31
0.0
  0
LINE
  5
21A
330
1F
100
AcDbEntity
  8
0
  6
Continuous
 62
     7
370
    18
100
AcDbLine
 10
0.0
 20
385.25
 30
0.0
 11
12.5
 21
385.25
 31
0.0
  0
CIRCLE
  5
21B
330
1F
100
AcDbEntity
  8
0
  6
Continuous
 62
   179
370
    25
100
AcDbCircle
 10
134.2979068761
 20
259.2542898009
 30
0.0
 40
0.9999999999999892
  0
CIRCLE
  5
21C
330
1F
100
AcDbEntity
  8
0
  6
Continuous
 62
   179
370
    25
100
AcDbCircle
 10
390.3879400723
 20
131.5542898009
 30
0.0
 40
1.349999999999942
  0
CIRCLE
  5
21D
330
1F
100
AcDbEntity
  8
0
  6
Continuous
 62
   179
370
    25
100
AcDbCircle
 10
390.3879400723
 20
269.2542898009
 30
0.0
 40
1.349999999999934
  0
CIRCLE
  5
21E
330
1F
100
AcDbEntity
  8
0
  6
Continuous
 62
   179
370
    25
100
AcDbCircle
 10
281.6879400723
 20
269.2542898009
 30
0.0
 40
1.349999999999988
  0
CIRCLE
  5
21F
330
1F
100
AcDbEntity
  8
0
  6
Continuous
 62
   179
370
    25
100
AcDbCircle
 10
365.3879400723
 20
200.4042898009
 30
0.0
 40
1.350000000000059
  0
CIRCLE
  5
220
330
1F
100
AcDbEntity
  8
0
  6
Continuous
 62
   179
370
    25
100
AcDbCircle
 10
281.6879400723
 20
131.5542898009
 30
0.0
 40
1.350000000000005
  0
CIRCLE
  5
221
330
1F
100
AcDbEntity
  8
0
  6
Continuous
 62
   179
370
    25
100
AcDbCircle
 10
197.9879400723
 20
200.4042898009
 30
0.0
 40
1.349999999999969
  0
CIRCLE
  5
222
330
1F
100
AcDbEntity
  8
0
  6
Continuous
 62
   179
370
    25
100
AcDbCircle
 10
171.9879400723
 20
269.2542898009
 30
0.0
 40
1.349999999999961
  0
CIRCLE
  5
223
330
1F
100
AcDbEntity
  8
0
  6
Continuous
 62
   179
370
    25
100
AcDbCircle
 10
171.9879400723
 20
131.5542898009
 30
0.0
 40
1.349999999999969
  0
CIRCLE
  5
224
330
1F
100
AcDbEntity
  8
0
  6
Continuous
 62
   179
370
    25
100
AcDbCircle
 10
271.4878600723
 20
198.9041738009
 30
0.0
 40
1.349999999999997
  0
CIRCLE
  5
225
330
1F
100
AcDbEntity
  8
0
  6
Continuous
 62
   179
370
    25
100
AcDbCircle
 10
329.4880000723
 20
198.9041738009
 30
0.0
 40
1.349999999999942
  0
CIRCLE
  5
226
330
1F
100
AcDbEntity
  8
0
  6
Continuous
 62
   179
370
    25
100
AcDbCircle
 10
329.4880000723
 20
247.9043298009
 30
0.0
 40
1.349999999999934
  0
CIRCLE
  5
227
330
1F
100
AcDbEntity
  8
0
  6
Continuous
 62
   179
370
    25
100
AcDbCircle
 10
271.4878600723
 20
247.9043298009
 30
0.0
 40
1.349999999999988
  0
MTEXT
  5
229
330
1F
100
AcDbEntity
  8
0
  6
Continuous
 62
     7
370
    18
100
AcDbMText
 10
522.4282666346
 20
7.6077567414
 30
0.0
 40
1.75
 41
0.0
 71
     2
 72
     1
  1
\M+194E1\M+18F79
  7
SLDTEXTSTYLE0
 73
     1
 44
1.0
  0
MTEXT
  5
22A
330
1F
100
AcDbEntity
  8
0
  6
Continuous
 62
     7
370
    18
100
AcDbMText
 10
522.4282667519
 20
18.1791793597
 30
0.0
 40
1.75
 41
0.0
 71
     2
 72
     1
  1
\M+18F79\M+189BB
  7
SLDTEXTSTYLE0
 73
     1
 44
1.0
  0
MTEXT
  5
22B
330
1F
100
AcDbEntity
  8
0
  6
Continuous
 62
     7
370
    18
100
AcDbMText
 10
522.4282666346
 20
14.6150620989
 30
0.0
 40
1.75
 41
0.0
 71
     2
 72
     1
  1
\M+18D48
  7
SLDTEXTSTYLE0
 73
     1
 44
1.0
  0
MTEXT
  5
22C
330
1F
100
AcDbEntity
  8
0
  6
Continuous
 62
     7
370
    18
100
AcDbMText
 10
522.4282666346
 20
11.1246347812
 30
0.0
 40
1.75
 41
0.0
 71
     2
 72
     1
  1
\M+18A6A
  7
SLDTEXTSTYLE0
 73
     1
 44
1.0
  0
MTEXT
  5
22D
330
1F
100
AcDbEntity
  8
0
  6
Continuous
 62
     7
370
    18
100
AcDbMText
 10
502.713004256
 20
18.3833489477
 30
0.0
 40
1.75
 41
0.0
 71
     2
 72
     1
  1

  7
SLDTEXTSTYLE0
 73
     1
 44
1.0
  0
MTEXT
  5
22F
330
1F
100
AcDbEntity
  8
0
  6
Continuous
 62
     7
370
    18
100
AcDbMText
 10
549.0275802636
 20
8.0940628897
 30
0.0
 40
1.75
 41
0.0
 71
     2
 72
     1
  1
\M+191E6  
  7
SLDTEXTSTYLE1
 73
     1
 44
1.0
  0
MTEXT
  5
230
330
1F
100
AcDbEntity
  8
0
  6
Continuous
 62
     7
370
    18
100
AcDbMText
 10
543.0819441364
 20
8.0940628897
 30
0.0
 40
1.75
 41
0.0
 71
     2
 72
     1
  1
\M+18BA4  
  7
SLDTEXTSTYLE1
 73
     1
 44
1.0
  0
MTEXT
  5
231
330
1F
100
AcDbEntity
  8
0
  6
Continuous
 62
     7
370
    18
100
AcDbMText
 10
561.730115595
 20
22.40513458
 30
0.0
 40
1.75
 41
0.0
 71
     2
 72
     1
  1
\M+194E4\M+197E1
  7
SLDTEXTSTYLE0
 73
     1
 44
1.0
  0
MTEXT
  5
232
330
1F
100
AcDbEntity
  8
0
  6
Continuous
 62
     7
370
    18
100
AcDbMText
 10
555.7876444933
 20
22.40513458
 30
0.0
 40
1.75
 41
0.0
 71
     2
 72
     1
  1
\M+18F64\M+197CA
  7
SLDTEXTSTYLE0
 73
     1
 44
1.0
  0
MTEXT
  5
234
330
1F
100
AcDbEntity
  8
0
  6
Continuous
 62
     7
370
    18
100
AcDbMText
 10
546.1066618417
 20
22.40513458
 30
0.0
 40
1.75
 41
0.0
 71
     2
 72
     1
  1
 \M+19269  
  7
SLDTEXTSTYLE2
 73
     1
 44
1.0
  0
MTEXT
  5
236
330
1F
100
AcDbEntity
  8
0
  6
Continuous
 62
     7
370
    18
100
AcDbMText
 10
535.6410483418
 20
21.6530905802
 30
0.0
 40
1.75
 41
0.0
 71
     2
 72
     1
  1
\M+1944E \M+18C8E \M+193FA
  7
SLDTEXTSTYLE3
 73
     1
 44
1.0
  0
MTEXT
  5
237
330
1F
100
AcDbEntity
  8
0
  6
Continuous
 62
     7
370
    18
100
AcDbMText
 10
528.6590568173
 20
21.6530905802
 30
0.0
 40
1.75
 41
0.0
 71
     2
 72
     1
  1
\M+196BC
  7
SLDTEXTSTYLE0
 73
     1
 44
1.0
  0
MTEXT
  5
238
330
1F
100
AcDbEntity
  8
0
  6
Continuous
 62
     7
370
    18
100
AcDbMText
 10
521.4677617597
 20
21.6530905802
 30
0.0
 40
1.75
 41
0.0
 71
     2
 72
     1
  1
\M+18D58\M+189FC\M+195B6\M+18C8F\M+18D86
  7
SLDTEXTSTYLE0
 73
     1
 44
1.0
  0
MTEXT
  5
239
330
1F
100
AcDbEntity
  8
0
  6
Continuous
 62
     7
370
    18
100
AcDbMText
 10
513.5446339026
 20
21.6530905802
 30
0.0
 40
1.75
 41
0.0
 71
     2
 72
     1
  1
\M+195AA\M+18BE6
  7
SLDTEXTSTYLE0
 73
     1
 44
1.0
  0
MTEXT
  5
23A
330
1F
100
AcDbEntity
  8
0
  6
Continuous
 62
     7
370
    18
100
AcDbMText
 10
506.976184807
 20
21.6530905802
 30
0.0
 40
1.75
 41
0.0
 71
     2
 72
     1
  1
\M+19094
  7
SLDTEXTSTYLE0
 73
     1
 44
1.0
  0
MTEXT
  5
23B
330
1F
100
AcDbEntity
  8
0
  6
Continuous
 62
     7
370
    18
100
AcDbMText
 10
502.0131963261
 20
21.6530905802
 30
0.0
 40
1.75
 41
0.0
 71
     2
 72
     1
  1

  7
SLDTEXTSTYLE0
 73
     1
 44
1.0
  0
MTEXT
  5
23C
330
1F
100
AcDbEntity
  8
0
  6
Continuous
 62
     7
370
    18
100
AcDbMText
 10
2.1060999906
 20
24.2165306923
 30
0.0
 40
1.75
 41
0.0
 71
     1
 72
     1
  1
\M+192EA   \M+18D86
  7
SLDTEXTSTYLE2
 73
     1
 44
1.0
  0
MTEXT
  5
23D
330
1F
100
AcDbEntity
  8
0
  6
Continuous
 62
     7
370
    18
100
AcDbMText
 10
2.7295375666
 20
30.6002916227
 30
0.0
 40
1.75
 41
0.0
 71
     1
 72
     1
  1
\M+18B8C\M+192EA\M+18D86
  7
SLDTEXTSTYLE0
 73
     1
 44
1.0
  0
MTEXT
  5
23E
330
1F
100
AcDbEntity
  8
0
  6
Continuous
 62
     7
370
    18
100
AcDbMText
 10
1.4664122326
 20
50.1377989537
 30
0.0
 40
1.75
 41
0.0
 71
     1
 72
     1
  1
\M+18ED8(\M+192CA)\M+19770\M+18C8F\M+1936F
  7
SLDTEXTSTYLE0
 73
     1
 44
1.0
  0
MTEXT
  5
240
330
1F
100
AcDbEntity
  8
0
  6
Continuous
 62
     7
370
    18
100
AcDbMText
 10
6.4552319622
 20
43.5879998013
 30
0.0
 40
1.75
 41
0.0
 71
     2
 72
     1
  1
\M+19560    
  7
SLDTEXTSTYLE4
 73
     1
 44
1.0
  0
MTEXT
  5
241
330
1F
100
AcDbEntity
  8
0
  6
Continuous
 62
     7
370
    18
100
AcDbMText
 10
6.4552319622
 20
37.0682566621
 30
0.0
 40
1.75
 41
0.0
 71
     2
 72
     1
  1
\M+19560    \M+18D5A
  7
SLDTEXTSTYLE4
 73
     1
 44
1.0
  0
MTEXT
  5
242
330
1F
100
AcDbEntity
  8
0
  6
Continuous
 62
     7
370
    18
100
AcDbMText
 10
6.2362298831
 20
17.5962767633
 30
0.0
 40
1.75
 41
0.0
 71
     2
 72
     1
  1
    \M+18E9A
  7
SLDTEXTSTYLE4
 73
     1
 44
1.0
  0
MTEXT
  5
243
330
1F
100
AcDbEntity
  8
0
  6
Continuous
 62
     7
370
    18
100
AcDbMText
 10
6.2362298831
 20
11.116651152
 30
0.0
 40
1.75
 41
0.0
 71
     2
 72
     1
  1
\M+193FA    \M+18AFA
  7
SLDTEXTSTYLE4
 73
     1
 44
1.0
  0
MTEXT
  5
244
330
1F
100
AcDbEntity
  8
0
  6
Continuous
 62
     7
370
    18
100
AcDbMText
 10
2.2410998544
 20
56.6799470644
 30
0.0
 40
1.75
 41
0.0
 71
     1
 72
     1
  1
\M+197EB \M+18C8F \M+191E3 \M+18D86
  7
SLDTEXTSTYLE2
 73
     1
 44
1.0
  0
MTEXT
  5
245
330
1F
100
AcDbEntity
  8
0
  6
Continuous
 62
     7
370
    18
100
AcDbMText
 10
565.4256550177
 20
8.0940630061
 30
0.0
 40
1.75
 41
0.0
 71
     1
 72
     1
  1
\M+191D6\M+191E3
  7
SLDTEXTSTYLE0
 73
     1
 44
1.0
  0
MTEXT
  5
246
330
1F
100
AcDbEntity
  8
0
  6
Continuous
 62
     7
370
    18
100
AcDbMText
 10
555.312849624
 20
8.0940630061
 30
0.0
 40
1.75
 41
0.0
 71
     2
 72
     1
  1
\M+194C5\M+1967B
  7
SLDTEXTSTYLE0
 73
     1
 44
1.0
  0
MTEXT
  5
248
330
1F
100
AcDbEntity
  8
0
  6
Continuous
 62
     7
370
    18
100
AcDbMText
 10
562.2186573155
 20
17.5789006398
 30
0.0
 40
1.75
 41
0.0
 71
     2
 72
     1
  1
2:1
  7
SLDTEXTSTYLE5
 73
     1
 44
1.0
  0
MTEXT
  5
249
330
1F
100
AcDbEntity
  8
0
  6
Continuous
 62
     7
370
    18
100
AcDbMText
 10
502.6376570001
 20
14.9283978637
 30
0.0
 40
1.75
 41
0.0
 71
     2
 72
     1
  1
\M+18D5A\M+18A6A
  7
SLDTEXTSTYLE0
 73
     1
 44
1.0
  0
MTEXT
  5
24A
330
1F
100
AcDbEntity
  8
0
  6
Continuous
 62
     7
370
    18
100
AcDbMText
 10
502.5623097461
 20
11.4148340483
 30
0.0
 40
1.75
 41
0.0
 71
     2
 72
     1
  1
\M+18EE5\M+18AC7
  7
SLDTEXTSTYLE0
 73
     1
 44
1.0
  0
MTEXT
  5
24B
330
1F
100
AcDbEntity
  8
0
  6
Continuous
 62
     7
370
    18
100
AcDbMText
 10
13.2722222214
 20
3.4897111387
 30
0.0
 40
1.75
 41
0.0
 71
     2
 72
     1
  1
1
  7
SLDTEXTSTYLE5
 73
     1
 44
1.0
  0
MTEXT
  5
24C
330
1F
100
AcDbEntity
  8
0
  6
Continuous
 62
     7
370
    18
100
AcDbMText
 10
38.7722222214
 20
3.4897111387
 30
0.0
 40
1.75
 41
0.0
 71
     2
 72
     1
  1
2
  7
SLDTEXTSTYLE5
 73
     1
 44
1.0
  0
MTEXT
  5
24D
330
1F
100
AcDbEntity
  8
0
  6
Continuous
 62
     7
370
    18
100
AcDbMText
 10
564.0444444427
 20
3.4897111387
 30
0.0
 40
1.75
 41
0.0
 71
     2
 72
     1
  1
23
  7
SLDTEXTSTYLE5
 73
     1
 44
1.0
  0
MTEXT
  5
24E
330
1F
100
AcDbEntity
  8
0
  6
Continuous
 62
     7
370
    18
100
AcDbMText
 10
539.0444444427
 20
3.4897111387
 30
0.0
 40
1.75
 41
0.0
 71
     2
 72
     1
  1
22
  7
SLDTEXTSTYLE5
 73
     1
 44
1.0
  0
MTEXT
  5
24F
330
1F
100
AcDbEntity
  8
0
  6
Continuous
 62
     7
370
    18
100
AcDbMText
 10
514.0444444427
 20
3.4897111387
 30
0.0
 40
1.75
 41
0.0
 71
     2
 72
     1
  1
21
  7
SLDTEXTSTYLE5
 73
     1
 44
1.0
  0
MTEXT
  5
250
330
1F
100
AcDbEntity
  8
0
  6
Continuous
 62
     7
370
    18
100
AcDbMText
 10
489.0444444427
 20
3.4897111387
 30
0.0
 40
1.75
 41
0.0
 71
     2
 72
     1
  1
20
  7
SLDTEXTSTYLE5
 73
     1
 44
1.0
  0
MTEXT
  5
251
330
1F
100
AcDbEntity
  8
0
  6
Continuous
 62
     7
370
    18
100
AcDbMText
 10
464.0456597023
 20
3.4897111387
 30
0.0
 40
1.75
 41
0.0
 71
     2
 72
     1
  1
19
  7
SLDTEXTSTYLE5
 73
     1
 44
1.0
  0
MTEXT
  5
252
330
1F
100
AcDbEntity
  8
0
  6
Continuous
 62
     7
370
    18
100
AcDbMText
 10
439.0456597023
 20
3.4897111387
 30
0.0
 40
1.75
 41
0.0
 71
     2
 72
     1
  1
18
  7
SLDTEXTSTYLE5
 73
     1
 44
1.0
  0
MTEXT
  5
253
330
1F
100
AcDbEntity
  8
0
  6
Continuous
 62
     7
370
    18
100
AcDbMText
 10
414.0456597023
 20
3.4897111387
 30
0.0
 40
1.75
 41
0.0
 71
     2
 72
     1
  1
17
  7
SLDTEXTSTYLE5
 73
     1
 44
1.0
  0
MTEXT
  5
254
330
1F
100
AcDbEntity
  8
0
  6
Continuous
 62
     7
370
    18
100
AcDbMText
 10
389.0456597023
 20
3.4897111387
 30
0.0
 40
1.75
 41
0.0
 71
     2
 72
     1
  1
16
  7
SLDTEXTSTYLE5
 73
     1
 44
1.0
  0
MTEXT
  5
255
330
1F
100
AcDbEntity
  8
0
  6
Continuous
 62
     7
370
    18
100
AcDbMText
 10
364.0444444427
 20
3.4897111387
 30
0.0
 40
1.75
 41
0.0
 71
     2
 72
     1
  1
15
  7
SLDTEXTSTYLE5
 73
     1
 44
1.0
  0
MTEXT
  5
256
330
1F
100
AcDbEntity
  8
0
  6
Continuous
 62
     7
370
    18
100
AcDbMText
 10
339.0444444427
 20
3.4897111387
 30
0.0
 40
1.75
 41
0.0
 71
     2
 72
     1
  1
14
  7
SLDTEXTSTYLE5
 73
     1
 44
1.0
  0
MTEXT
  5
257
330
1F
100
AcDbEntity
  8
0
  6
Continuous
 62
     7
370
    18
100
AcDbMText
 10
314.0444444427
 20
3.4897111387
 30
0.0
 40
1.75
 41
0.0
 71
     2
 72
     1
  1
13
  7
SLDTEXTSTYLE5
 73
     1
 44
1.0
  0
MTEXT
  5
258
330
1F
100
AcDbEntity
  8
0
  6
Continuous
 62
     7
370
    18
100
AcDbMText
 10
289.0444444427
 20
3.4897111387
 30
0.0
 40
1.75
 41
0.0
 71
     2
 72
     1
  1
12
  7
SLDTEXTSTYLE5
 73
     1
 44
1.0
  0
MTEXT
  5
259
330
1F
100
AcDbEntity
  8
0
  6
Continuous
 62
     7
370
    18
100
AcDbMText
 10
264.0444444427
 20
3.4897111387
 30
0.0
 40
1.75
 41
0.0
 71
     2
 72
     1
  1
11
  7
SLDTEXTSTYLE5
 73
     1
 44
1.0
  0
MTEXT
  5
25A
330
1F
100
AcDbEntity
  8
0
  6
Continuous
 62
     7
370
    18
100
AcDbMText
 10
239.0444444427
 20
3.4897111387
 30
0.0
 40
1.75
 41
0.0
 71
     2
 72
     1
  1
10
  7
SLDTEXTSTYLE5
 73
     1
 44
1.0
  0
MTEXT
  5
25B
330
1F
100
AcDbEntity
  8
0
  6
Continuous
 62
     7
370
    18
100
AcDbMText
 10
213.77343751
 20
3.4897111387
 30
0.0
 40
1.75
 41
0.0
 71
     2
 72
     1
  1
9
  7
SLDTEXTSTYLE5
 73
     1
 44
1.0
  0
MTEXT
  5
25C
330
1F
100
AcDbEntity
  8
0
  6
Continuous
 62
     7
370
    18
100
AcDbMText
 10
188.77343751
 20
3.4897111387
 30
0.0
 40
1.75
 41
0.0
 71
     2
 72
     1
  1
8
  7
SLDTEXTSTYLE5
 73
     1
 44
1.0
  0
MTEXT
  5
25D
330
1F
100
AcDbEntity
  8
0
  6
Continuous
 62
     7
370
    18
100
AcDbMText
 10
163.77343751
 20
3.4897111387
 30
0.0
 40
1.75
 41
0.0
 71
     2
 72
     1
  1
7
  7
SLDTEXTSTYLE5
 73
     1
 44
1.0
  0
MTEXT
  5
25E
330
1F
100
AcDbEntity
  8
0
  6
Continuous
 62
     7
370
    18
100
AcDbMText
 10
138.77343751
 20
3.4897111387
 30
0.0
 40
1.75
 41
0.0
 71
     2
 72
     1
  1
6
  7
SLDTEXTSTYLE5
 73
     1
 44
1.0
  0
MTEXT
  5
25F
330
1F
100
AcDbEntity
  8
0
  6
Continuous
 62
     7
370
    18
100
AcDbMText
 10
113.7722222214
 20
3.4897111387
 30
0.0
 40
1.75
 41
0.0
 71
     2
 72
     1
  1
5
  7
SLDTEXTSTYLE5
 73
     1
 44
1.0
  0
MTEXT
  5
260
330
1F
100
AcDbEntity
  8
0
  6
Continuous
 62
     7
370
    18
100
AcDbMText
 10
88.7722222214
 20
3.4897111387
 30
0.0
 40
1.75
 41
0.0
 71
     2
 72
     1
  1
4
  7
SLDTEXTSTYLE5
 73
     1
 44
1.0
  0
MTEXT
  5
261
330
1F
100
AcDbEntity
  8
0
  6
Continuous
 62
     7
370
    18
100
AcDbMText
 10
63.7722222214
 20
3.4897111387
 30
0.0
 40
1.75
 41
0.0
 71
     2
 72
     1
  1
3
  7
SLDTEXTSTYLE5
 73
     1
 44
1.0
  0
MTEXT
  5
262
330
1F
100
AcDbEntity
  8
0
  6
Continuous
 62
     7
370
    18
100
AcDbMText
 10
585.7944444427
 20
3.4897111387
 30
0.0
 40
1.75
 41
0.0
 71
     2
 72
     1
  1
24
  7
SLDTEXTSTYLE5
 73
     1
 44
1.0
  0
MTEXT
  5
263
330
1F
100
AcDbEntity
  8
0
  6
Continuous
 62
     7
370
    18
100
AcDbMText
 10
564.0444444427
 20
418.9897111387
 30
0.0
 40
1.75
 41
0.0
 71
     2
 72
     1
  1
23
  7
SLDTEXTSTYLE5
 73
     1
 44
1.0
  0
MTEXT
  5
264
330
1F
100
AcDbEntity
  8
0
  6
Continuous
 62
     7
370
    18
100
AcDbMText
 10
439.0456597023
 20
418.9897111387
 30
0.0
 40
1.75
 41
0.0
 71
     2
 72
     1
  1
18
  7
SLDTEXTSTYLE5
 73
     1
 44
1.0
  0
MTEXT
  5
265
330
1F
100
AcDbEntity
  8
0
  6
Continuous
 62
     7
370
    18
100
AcDbMText
 10
239.0444444427
 20
418.9897111387
 30
0.0
 40
1.75
 41
0.0
 71
     2
 72
     1
  1
10
  7
SLDTEXTSTYLE5
 73
     1
 44
1.0
  0
MTEXT
  5
266
330
1F
100
AcDbEntity
  8
0
  6
Continuous
 62
     7
370
    18
100
AcDbMText
 10
414.0456597023
 20
418.9897111387
 30
0.0
 40
1.75
 41
0.0
 71
     2
 72
     1
  1
17
  7
SLDTEXTSTYLE5
 73
     1
 44
1.0
  0
MTEXT
  5
267
330
1F
100
AcDbEntity
  8
0
  6
Continuous
 62
     7
370
    18
100
AcDbMText
 10
188.77343751
 20
418.9897111387
 30
0.0
 40
1.75
 41
0.0
 71
     2
 72
     1
  1
8
  7
SLDTEXTSTYLE5
 73
     1
 44
1.0
  0
MTEXT
  5
268
330
1F
100
AcDbEntity
  8
0
  6
Continuous
 62
     7
370
    18
100
AcDbMText
 10
489.0444444427
 20
418.9897111387
 30
0.0
 40
1.75
 41
0.0
 71
     2
 72
     1
  1
20
  7
SLDTEXTSTYLE5
 73
     1
 44
1.0
  0
MTEXT
  5
269
330
1F
100
AcDbEntity
  8
0
  6
Continuous
 62
     7
370
    18
100
AcDbMText
 10
138.77343751
 20
418.9897111387
 30
0.0
 40
1.75
 41
0.0
 71
     2
 72
     1
  1
6
  7
SLDTEXTSTYLE5
 73
     1
 44
1.0
  0
MTEXT
  5
26A
330
1F
100
AcDbEntity
  8
0
  6
Continuous
 62
     7
370
    18
100
AcDbMText
 10
13.2722222214
 20
418.9897111387
 30
0.0
 40
1.75
 41
0.0
 71
     2
 72
     1
  1
1
  7
SLDTEXTSTYLE5
 73
     1
 44
1.0
  0
MTEXT
  5
26B
330
1F
100
AcDbEntity
  8
0
  6
Continuous
 62
     7
370
    18
100
AcDbMText
 10
339.0444444427
 20
418.9897111387
 30
0.0
 40
1.75
 41
0.0
 71
     2
 72
     1
  1
14
  7
SLDTEXTSTYLE5
 73
     1
 44
1.0
  0
MTEXT
  5
26C
330
1F
100
AcDbEntity
  8
0
  6
Continuous
 62
     7
370
    18
100
AcDbMText
 10
88.7722222214
 20
418.9897111387
 30
0.0
 40
1.75
 41
0.0
 71
     2
 72
     1
  1
4
  7
SLDTEXTSTYLE5
 73
     1
 44
1.0
  0
MTEXT
  5
26D
330
1F
100
AcDbEntity
  8
0
  6
Continuous
 62
     7
370
    18
100
AcDbMText
 10
289.0444444427
 20
418.9897111387
 30
0.0
 40
1.75
 41
0.0
 71
     2
 72
     1
  1
12
  7
SLDTEXTSTYLE5
 73
     1
 44
1.0
  0
MTEXT
  5
26E
330
1F
100
AcDbEntity
  8
0
  6
Continuous
 62
     7
370
    18
100
AcDbMText
 10
38.7722222214
 20
418.9897111387
 30
0.0
 40
1.75
 41
0.0
 71
     2
 72
     1
  1
2
  7
SLDTEXTSTYLE5
 73
     1
 44
1.0
  0
MTEXT
  5
26F
330
1F
100
AcDbEntity
  8
0
  6
Continuous
 62
     7
370
    18
100
AcDbMText
 10
364.0444444427
 20
418.9897111387
 30
0.0
 40
1.75
 41
0.0
 71
     2
 72
     1
  1
15
  7
SLDTEXTSTYLE5
 73
     1
 44
1.0
  0
MTEXT
  5
270
330
1F
100
AcDbEntity
  8
0
  6
Continuous
 62
     7
370
    18
100
AcDbMText
 10
264.0444444427
 20
418.9897111387
 30
0.0
 40
1.75
 41
0.0
 71
     2
 72
     1
  1
11
  7
SLDTEXTSTYLE5
 73
     1
 44
1.0
  0
MTEXT
  5
271
330
1F
100
AcDbEntity
  8
0
  6
Continuous
 62
     7
370
    18
100
AcDbMText
 10
213.77343751
 20
418.9897111387
 30
0.0
 40
1.75
 41
0.0
 71
     2
 72
     1
  1
9
  7
SLDTEXTSTYLE5
 73
     1
 44
1.0
  0
MTEXT
  5
272
330
1F
100
AcDbEntity
  8
0
  6
Continuous
 62
     7
370
    18
100
AcDbMText
 10
539.0444444427
 20
418.9897111387
 30
0.0
 40
1.75
 41
0.0
 71
     2
 72
     1
  1
22
  7
SLDTEXTSTYLE5
 73
     1
 44
1.0
  0
MTEXT
  5
273
330
1F
100
AcDbEntity
  8
0
  6
Continuous
 62
     7
370
    18
100
AcDbMText
 10
163.77343751
 20
418.9897111387
 30
0.0
 40
1.75
 41
0.0
 71
     2
 72
     1
  1
7
  7
SLDTEXTSTYLE5
 73
     1
 44
1.0
  0
MTEXT
  5
274
330
1F
100
AcDbEntity
  8
0
  6
Continuous
 62
     7
370
    18
100
AcDbMText
 10
464.0456597023
 20
418.9897111387
 30
0.0
 40
1.75
 41
0.0
 71
     2
 72
     1
  1
19
  7
SLDTEXTSTYLE5
 73
     1
 44
1.0
  0
MTEXT
  5
275
330
1F
100
AcDbEntity
  8
0
  6
Continuous
 62
     7
370
    18
100
AcDbMText
 10
314.0444444427
 20
418.9897111387
 30
0.0
 40
1.75
 41
0.0
 71
     2
 72
     1
  1
13
  7
SLDTEXTSTYLE5
 73
     1
 44
1.0
  0
MTEXT
  5
276
330
1F
100
AcDbEntity
  8
0
  6
Continuous
 62
     7
370
    18
100
AcDbMText
 10
113.7722222214
 20
418.9897111387
 30
0.0
 40
1.75
 41
0.0
 71
     2
 72
     1
  1
5
  7
SLDTEXTSTYLE5
 73
     1
 44
1.0
  0
MTEXT
  5
277
330
1F
100
AcDbEntity
  8
0
  6
Continuous
 62
     7
370
    18
100
AcDbMText
 10
514.0444444427
 20
418.9897111387
 30
0.0
 40
1.75
 41
0.0
 71
     2
 72
     1
  1
21
  7
SLDTEXTSTYLE5
 73
     1
 44
1.0
  0
MTEXT
  5
278
330
1F
100
AcDbEntity
  8
0
  6
Continuous
 62
     7
370
    18
100
AcDbMText
 10
63.7722222214
 20
418.9897111387
 30
0.0
 40
1.75
 41
0.0
 71
     2
 72
     1
  1
3
  7
SLDTEXTSTYLE5
 73
     1
 44
1.0
  0
MTEXT
  5
279
330
1F
100
AcDbEntity
  8
0
  6
Continuous
 62
     7
370
    18
100
AcDbMText
 10
585.7944444427
 20
418.9897111387
 30
0.0
 40
1.75
 41
0.0
 71
     2
 72
     1
  1
24
  7
SLDTEXTSTYLE5
 73
     1
 44
1.0
  0
MTEXT
  5
27A
330
1F
100
AcDbEntity
  8
0
  6
Continuous
 62
     7
370
    18
100
AcDbMText
 10
389.0456597023
 20
418.9897111387
 30
0.0
 40
1.75
 41
0.0
 71
     2
 72
     1
  1
16
  7
SLDTEXTSTYLE5
 73
     1
 44
1.0
  0
MTEXT
  5
27B
330
1F
100
AcDbEntity
  8
0
  6
Continuous
 62
     7
370
    18
100
AcDbMText
 10
6.66015626
 20
373.769088342
 30
0.0
 40
1.75
 41
0.0
 71
     2
 72
     1
  1
B
  7
SLDTEXTSTYLE5
 73
     1
 44
1.0
  0
MTEXT
  5
27C
330
1F
100
AcDbEntity
  8
0
  6
Continuous
 62
     7
370
    18
100
AcDbMText
 10
6.7136284714
 20
348.7397111387
 30
0.0
 40
1.75
 41
0.0
 71
     2
 72
     1
  1
C
  7
SLDTEXTSTYLE5
 73
     1
 44
1.0
  0
MTEXT
  5
27D
330
1F
100
AcDbEntity
  8
0
  6
Continuous
 62
     7
370
    18
100
AcDbMText
 10
6.71484376
 20
323.769088342
 30
0.0
 40
1.75
 41
0.0
 71
     2
 72
     1
  1
D
  7
SLDTEXTSTYLE5
 73
     1
 44
1.0
  0
MTEXT
  5
27E
330
1F
100
AcDbEntity
  8
0
  6
Continuous
 62
     7
370
    18
100
AcDbMText
 10
6.6589409714
 20
298.7397111387
 30
0.0
 40
1.75
 41
0.0
 71
     2
 72
     1
  1
E
  7
SLDTEXTSTYLE5
 73
     1
 44
1.0
  0
MTEXT
  5
27F
330
1F
100
AcDbEntity
  8
0
  6
Continuous
 62
     7
370
    18
100
AcDbMText
 10
6.612152772
 20
273.769088342
 30
0.0
 40
1.75
 41
0.0
 71
     2
 72
     1
  1
F
  7
SLDTEXTSTYLE5
 73
     1
 44
1.0
  0
MTEXT
  5
280
330
1F
100
AcDbEntity
  8
0
  6
Continuous
 62
     7
370
    18
100
AcDbMText
 10
6.76953126
 20
248.7397111387
 30
0.0
 40
1.75
 41
0.0
 71
     2
 72
     1
  1
G
  7
SLDTEXTSTYLE5
 73
     1
 44
1.0
  0
MTEXT
  5
281
330
1F
100
AcDbEntity
  8
0
  6
Continuous
 62
     7
370
    18
100
AcDbMText
 10
6.71484376
 20
223.769088342
 30
0.0
 40
1.75
 41
0.0
 71
     2
 72
     1
  1
H
  7
SLDTEXTSTYLE5
 73
     1
 44
1.0
  0
MTEXT
  5
282
330
1F
100
AcDbEntity
  8
0
  6
Continuous
 62
     7
370
    18
100
AcDbMText
 10
6.5076388975
 20
198.7397111387
 30
0.0
 40
1.75
 41
0.0
 71
     2
 72
     1
  1
J
  7
SLDTEXTSTYLE5
 73
     1
 44
1.0
  0
MTEXT
  5
283
330
1F
100
AcDbEntity
  8
0
  6
Continuous
 62
     7
370
    18
100
AcDbMText
 10
6.66015626
 20
173.769088342
 30
0.0
 40
1.75
 41
0.0
 71
     2
 72
     1
  1
K
  7
SLDTEXTSTYLE5
 73
     1
 44
1.0
  0
MTEXT
  5
284
330
1F
100
AcDbEntity
  8
0
  6
Continuous
 62
     7
370
    18
100
AcDbMText
 10
6.5902777745
 20
148.7397111387
 30
0.0
 40
1.75
 41
0.0
 71
     2
 72
     1
  1
L
  7
SLDTEXTSTYLE5
 73
     1
 44
1.0
  0
MTEXT
  5
285
330
1F
100
AcDbEntity
  8
0
  6
Continuous
 62
     7
370
    18
100
AcDbMText
 10
6.7986979021
 20
123.769088342
 30
0.0
 40
1.75
 41
0.0
 71
     2
 72
     1
  1
M
  7
SLDTEXTSTYLE5
 73
     1
 44
1.0
  0
MTEXT
  5
286
330
1F
100
AcDbEntity
  8
0
  6
Continuous
 62
     7
370
    18
100
AcDbMText
 10
6.7743923508
 20
98.7397111387
 30
0.0
 40
1.75
 41
0.0
 71
     2
 72
     1
  1
N
  7
SLDTEXTSTYLE5
 73
     1
 44
1.0
  0
MTEXT
  5
287
330
1F
100
AcDbEntity
  8
0
  6
Continuous
 62
     7
370
    18
100
AcDbMText
 10
6.7221354281
 20
73.769088342
 30
0.0
 40
1.75
 41
0.0
 71
     2
 72
     1
  1
P
  7
SLDTEXTSTYLE5
 73
     1
 44
1.0
  0
MTEXT
  5
288
330
1F
100
AcDbEntity
  8
0
  6
Continuous
 62
     7
370
    18
100
AcDbMText
 10
6.66015626
 20
403.894088342
 30
0.0
 40
1.75
 41
0.0
 71
     2
 72
     1
  1
A
  7
SLDTEXTSTYLE5
 73
     1
 44
1.0
  0
MTEXT
  5
289
330
1F
100
AcDbEntity
  8
0
  6
Continuous
 62
     7
370
    18
100
AcDbMText
 10
592.32812501
 20
18.644088342
 30
0.0
 40
1.75
 41
0.0
 71
     2
 72
     1
  1
T
  7
SLDTEXTSTYLE5
 73
     1
 44
1.0
  0
MTEXT
  5
28A
330
1F
100
AcDbEntity
  8
0
  6
Continuous
 62
     7
370
    18
100
AcDbMText
 10
592.46484376
 20
48.7397111387
 30
0.0
 40
1.75
 41
0.0
 71
     2
 72
     1
  1
R
  7
SLDTEXTSTYLE5
 73
     1
 44
1.0
  0
MTEXT
  5
28B
330
1F
100
AcDbEntity
  8
0
  6
Continuous
 62
     7
370
    18
100
AcDbMText
 10
592.4721354281
 20
73.769088342
 30
0.0
 40
1.75
 41
0.0
 71
     2
 72
     1
  1
P
  7
SLDTEXTSTYLE5
 73
     1
 44
1.0
  0
MTEXT
  5
28C
330
1F
100
AcDbEntity
  8
0
  6
Continuous
 62
     7
370
    18
100
AcDbMText
 10
592.5243923508
 20
98.7397111387
 30
0.0
 40
1.75
 41
0.0
 71
     2
 72
     1
  1
N
  7
SLDTEXTSTYLE5
 73
     1
 44
1.0
  0
MTEXT
  5
28D
330
1F
100
AcDbEntity
  8
0
  6
Continuous
 62
     7
370
    18
100
AcDbMText
 10
592.5486979021
 20
123.769088342
 30
0.0
 40
1.75
 41
0.0
 71
     2
 72
     1
  1
M
  7
SLDTEXTSTYLE5
 73
     1
 44
1.0
  0
MTEXT
  5
28E
330
1F
100
AcDbEntity
  8
0
  6
Continuous
 62
     7
370
    18
100
AcDbMText
 10
592.3402777745
 20
148.7397111387
 30
0.0
 40
1.75
 41
0.0
 71
     2
 72
     1
  1
L
  7
SLDTEXTSTYLE5
 73
     1
 44
1.0
  0
MTEXT
  5
28F
330
1F
100
AcDbEntity
  8
0
  6
Continuous
 62
     7
370
    18
100
AcDbMText
 10
592.41015626
 20
173.769088342
 30
0.0
 40
1.75
 41
0.0
 71
     2
 72
     1
  1
K
  7
SLDTEXTSTYLE5
 73
     1
 44
1.0
  0
MTEXT
  5
290
330
1F
100
AcDbEntity
  8
0
  6
Continuous
 62
     7
370
    18
100
AcDbMText
 10
592.2576388975
 20
198.7397111387
 30
0.0
 40
1.75
 41
0.0
 71
     2
 72
     1
  1
J
  7
SLDTEXTSTYLE5
 73
     1
 44
1.0
  0
MTEXT
  5
291
330
1F
100
AcDbEntity
  8
0
  6
Continuous
 62
     7
370
    18
100
AcDbMText
 10
592.46484376
 20
223.769088342
 30
0.0
 40
1.75
 41
0.0
 71
     2
 72
     1
  1
H
  7
SLDTEXTSTYLE5
 73
     1
 44
1.0
  0
MTEXT
  5
292
330
1F
100
AcDbEntity
  8
0
  6
Continuous
 62
     7
370
    18
100
AcDbMText
 10
592.51953126
 20
248.7397111387
 30
0.0
 40
1.75
 41
0.0
 71
     2
 72
     1
  1
G
  7
SLDTEXTSTYLE5
 73
     1
 44
1.0
  0
MTEXT
  5
293
330
1F
100
AcDbEntity
  8
0
  6
Continuous
 62
     7
370
    18
100
AcDbMText
 10
592.362152772
 20
273.769088342
 30
0.0
 40
1.75
 41
0.0
 71
     2
 72
     1
  1
F
  7
SLDTEXTSTYLE5
 73
     1
 44
1.0
  0
MTEXT
  5
294
330
1F
100
AcDbEntity
  8
0
  6
Continuous
 62
     7
370
    18
100
AcDbMText
 10
592.4089409714
 20
298.7397111387
 30
0.0
 40
1.75
 41
0.0
 71
     2
 72
     1
  1
E
  7
SLDTEXTSTYLE5
 73
     1
 44
1.0
  0
MTEXT
  5
295
330
1F
100
AcDbEntity
  8
0
  6
Continuous
 62
     7
370
    18
100
AcDbMText
 10
592.46484376
 20
323.769088342
 30
0.0
 40
1.75
 41
0.0
 71
     2
 72
     1
  1
D
  7
SLDTEXTSTYLE5
 73
     1
 44
1.0
  0
MTEXT
  5
296
330
1F
100
AcDbEntity
  8
0
  6
Continuous
 62
     7
370
    18
100
AcDbMText
 10
592.4636284714
 20
348.7397111387
 30
0.0
 40
1.75
 41
0.0
 71
     2
 72
     1
  1
C
  7
SLDTEXTSTYLE5
 73
     1
 44
1.0
  0
MTEXT
  5
297
330
1F
100
AcDbEntity
  8
0
  6
Continuous
 62
     7
370
    18
100
AcDbMText
 10
592.41015626
 20
373.769088342
 30
0.0
 40
1.75
 41
0.0
 71
     2
 72
     1
  1
B
  7
SLDTEXTSTYLE5
 73
     1
 44
1.0
  0
MTEXT
  5
298
330
1F
100
AcDbEntity
  8
0
  6
Continuous
 62
     7
370
    18
100
AcDbMText
 10
592.41015626
 20
403.894088342
 30
0.0
 40
1.75
 41
0.0
 71
     2
 72
     1
  1
A
  7
SLDTEXTSTYLE5
 73
     1
 44
1.0
  0
ENDSEC
  0
SECTION
  2
OBJECTS
  0
DICTIONARY
  5
C
330
0
100
AcDbDictionary
281
     1
  3
ACAD_GROUP
350
D
  3
ACAD_LAYOUT
350
1A
  3
ACAD_MLINESTYLE
350
17
  3
ACAD_PLOTSETTINGS
350
19
  3
ACAD_PLOTSTYLENAME
350
E
  3
ACAD_SCALELIST
350
47
  0
DICTIONARY
  5
D
102
{ACAD_REACTORS
330
C
102
}
330
C
100
AcDbDictionary
281
     1
  0
DICTIONARY
  5
1A
102
{ACAD_REACTORS
330
C
102
}
330
C
100
AcDbDictionary
281
     1
  3
Layout1
350
1E
  3
Layout2
350
26
  3
Model
350
22
  0
DICTIONARY
  5
17
102
{ACAD_REACTORS
330
C
102
}
330
C
100
AcDbDictionary
281
     1
  3
Standard
350
18
  0
DICTIONARY
  5
19
102
{ACAD_REACTORS
330
C
102
}
330
C
100
AcDbDictionary
281
     1
  0
ACDBDICTIONARYWDFLT
  5
E
102
{ACAD_REACTORS
330
C
102
}
330
C
100
AcDbDictionary
281
     1
  3
Normal
350
F
100
AcDbDictionaryWithDefault
340
F
  0
DICTIONARY
  5
47
102
{ACAD_REACTORS
330
C
102
}
330
C
100
AcDbDictionary
281
     1
  3
A0
350
48
  3
A1
350
49
  3
A2
350
4A
  3
A3
350
4B
  3
A4
350
4C
  3
A5
350
4D
  3
A6
350
4E
  3
A7
350
4F
  3
A8
350
50
  3
A9
350
51
  3
B0
350
52
  3
B1
350
53
  3
B2
350
54
  3
B3
350
55
  3
B4
350
56
  3
B5
350
57
  3
B6
350
58
  3
B7
350
59
  3
B8
350
5A
  3
B9
350
5B
  3
C0
350
5C
  3
C1
350
5D
  3
C2
350
5E
  3
C3
350
5F
  3
C4
350
60
  3
C5
350
61
  3
C6
350
62
  3
C7
350
63
  3
C8
350
64
  3
C9
350
65
  3
D0
350
66
  3
D1
350
67
  3
D2
350
68
  0
LAYOUT
  5
1E
102
{ACAD_REACTORS
330
1A
102
}
330
1A
100
AcDbPlotSettings
  1

  2
none_device
  4

  6

 40
0.0
 41
0.0
 42
0.0
 43
0.0
 44
0.0
 45
0.0
 46
0.0
 47
0.0
 48
0.0
 49
0.0
140
0.0
141
0.0
142
1.0
143
1.0
 70
   688
 72
     1
 73
     0
 74
     5
  7

 75
    16
147
1.0
148
0.0
149
0.0
100
AcDbLayout
  1
Layout1
 70
     1
 71
     1
 10
0.0
 20
0.0
 11
420.0
 21
297.0
 12
0.0
 22
0.0
 32
0.0
 14
1.0000000000E+20
 24
1.0000000000E+20
 34
1.0000000000E+20
 15
-1.0000000000E+20
 25
-1.0000000000E+20
 35
-1.0000000000E+20
146
0.0
 13
0.0
 23
0.0
 33
0.0
 16
1.0
 26
0.0
 36
0.0
 17
0.0
 27
1.0
 37
0.0
 76
     0
330
1B
  0
LAYOUT
  5
26
102
{ACAD_REACTORS
330
1A
102
}
330
1A
100
AcDbPlotSettings
  1

  2
none_device
  4

  6

 40
0.0
 41
0.0
 42
0.0
 43
0.0
 44
0.0
 45
0.0
 46
0.0
 47
0.0
 48
0.0
 49
0.0
140
0.0
141
0.0
142
1.0
143
1.0
 70
   688
 72
     1
 73
     0
 74
     5
  7

 75
    16
147
1.0
148
0.0
149
0.0
100
AcDbLayout
  1
Layout2
 70
     1
 71
     2
 10
0.0
 20
0.0
 11
0.0
 21
0.0
 12
0.0
 22
0.0
 32
0.0
 14
0.0
 24
0.0
 34
0.0
 15
0.0
 25
0.0
 35
0.0
146
0.0
 13
0.0
 23
0.0
 33
0.0
 16
1.0
 26
0.0
 36
0.0
 17
0.0
 27
1.0
 37
0.0
 76
     0
330
23
  0
LAYOUT
  5
22
102
{ACAD_REACTORS
330
1A
102
}
330
1A
100
AcDbPlotSettings
  1

  2
none_device
  4
Letter_(8.50_x_11.00_Inches)
  6

 40
6.35
 41
6.35
 42
6.35000508
 43
6.35000508
 44
215.9
 45
279.4
 46
0.0
 47
0.0
 48
0.0
 49
0.0
140
0.0
141
0.0
142
1.0
143
1.0
 70
  1712
 72
     1
 73
     0
 74
     0
  7

 75
     0
147
1.0
148
0.0
149
0.0
100
AcDbLayout
  1
Model
 70
     1
 71
     0
 10
0.0
 20
0.0
 11
594.5
 21
420.5
 12
0.0
 22
0.0
 32
0.0
 14
0.0
 24
0.0
 34
0.0
 15
594.5
 25
420.5
 35
0.0
146
0.0
 13
0.0
 23
0.0
 33
0.0
 16
1.0
 26
0.0
 36
0.0
 17
0.0
 27
1.0
 37
0.0
 76
     0
330
1F
331
29
  0
MLINESTYLE
  5
18
102
{ACAD_REACTORS
330
17
102
}
330
17
100
AcDbMlineStyle
  2
Standard
 70
     0
  3

 62
   256
 51
90.0
 52
90.0
 71
     2
 49
0.5
 62
   256
  6
BYLAYER
 49
-0.5
 62
   256
  6
BYLAYER
  0
ACDBPLACEHOLDER
  5
F
102
{ACAD_REACTORS
330
E
102
}
330
E
  0
SCALE
  5
48
102
{ACAD_REACTORS
330
47
102
}
330
47
100
AcDbScale
 70
     0
300
1:1
140
1.0
141
1.0
290
     1
  0
SCALE
  5
49
102
{ACAD_REACTORS
330
47
102
}
330
47
100
AcDbScale
 70
     0
300
1:2
140
1.0
141
2.0
290
     0
  0
SCALE
  5
4A
102
{ACAD_REACTORS
330
47
102
}
330
47
100
AcDbScale
 70
     0
300
1:4
140
1.0
141
4.0
290
     0
  0
SCALE
  5
4B
102
{ACAD_REACTORS
330
47
102
}
330
47
100
AcDbScale
 70
     0
300
1:5
140
1.0
141
5.0
290
     0
  0
SCALE
  5
4C
102
{ACAD_REACTORS
330
47
102
}
330
47
100
AcDbScale
 70
     0
300
1:8
140
1.0
141
8.0
290
     0
  0
SCALE
  5
4D
102
{ACAD_REACTORS
330
47
102
}
330
47
100
AcDbScale
 70
     0
300
1:10
140
1.0
141
10.0
290
     0
  0
SCALE
  5
4E
102
{ACAD_REACTORS
330
47
102
}
330
47
100
AcDbScale
 70
     0
300
1:16
140
1.0
141
16.0
290
     0
  0
SCALE
  5
4F
102
{ACAD_REACTORS
330
47
102
}
330
47
100
AcDbScale
 70
     0
300
1:20
140
1.0
141
20.0
290
     0
  0
SCALE
  5
50
102
{ACAD_REACTORS
330
47
102
}
330
47
100
AcDbScale
 70
     0
300
1:30
140
1.0
141
30.0
290
     0
  0
SCALE
  5
51
102
{ACAD_REACTORS
330
47
102
}
330
47
100
AcDbScale
 70
     0
300
1:40
140
1.0
141
40.0
290
     0
  0
SCALE
  5
52
102
{ACAD_REACTORS
330
47
102
}
330
47
100
AcDbScale
 70
     0
300
1:50
140
1.0
141
50.0
290
     0
  0
SCALE
  5
53
102
{ACAD_REACTORS
330
47
102
}
330
47
100
AcDbScale
 70
     0
300
1:100
140
1.0
141
100.0
290
     0
  0
SCALE
  5
54
102
{ACAD_REACTORS
330
47
102
}
330
47
100
AcDbScale
 70
     0
300
2:1
140
2.0
141
1.0
290
     0
  0
SCALE
  5
55
102
{ACAD_REACTORS
330
47
102
}
330
47
100
AcDbScale
 70
     0
300
4:1
140
4.0
141
1.0
290
     0
  0
SCALE
  5
56
102
{ACAD_REACTORS
330
47
102
}
330
47
100
AcDbScale
 70
     0
300
8:1
140
8.0
141
1.0
290
     0
  0
SCALE
  5
57
102
{ACAD_REACTORS
330
47
102
}
330
47
100
AcDbScale
 70
     0
300
10:1
140
10.0
141
1.0
290
     0
  0
SCALE
  5
58
102
{ACAD_REACTORS
330
47
102
}
330
47
100
AcDbScale
 70
     0
300
100:1
140
100.0
141
1.0
290
     0
  0
SCALE
  5
59
102
{ACAD_REACTORS
330
47
102
}
330
47
100
AcDbScale
 70
     0
300
1/128" = 1'-0"
140
0.0078125
141
12.0
290
     0
  0
SCALE
  5
5A
102
{ACAD_REACTORS
330
47
102
}
330
47
100
AcDbScale
 70
     0
300
1/64" = 1'-0"
140
0.015625
141
12.0
290
     0
  0
SCALE
  5
5B
102
{ACAD_REACTORS
330
47
102
}
330
47
100
AcDbScale
 70
     0
300
1/32" = 1'-0"
140
0.03125
141
12.0
290
     0
  0
SCALE
  5
5C
102
{ACAD_REACTORS
330
47
102
}
330
47
100
AcDbScale
 70
     0
300
1/16" = 1'-0"
140
0.0625
141
12.0
290
     0
  0
SCALE
  5
5D
102
{ACAD_REACTORS
330
47
102
}
330
47
100
AcDbScale
 70
     0
300
3/32" = 1'-0"
140
0.09375
141
12.0
290
     0
  0
SCALE
  5
5E
102
{ACAD_REACTORS
330
47
102
}
330
47
100
AcDbScale
 70
     0
300
1/8" = 1'-0"
140
0.125
141
12.0
290
     0
  0
SCALE
  5
5F
102
{ACAD_REACTORS
330
47
102
}
330
47
100
AcDbScale
 70
     0
300
3/16" = 1'-0"
140
0.1875
141
12.0
290
     0
  0
SCALE
  5
60
102
{ACAD_REACTORS
330
47
102
}
330
47
100
AcDbScale
 70
     0
300
1/4" = 1'-0"
140
0.25
141
12.0
290
     0
  0
SCALE
  5
61
102
{ACAD_REACTORS
330
47
102
}
330
47
100
AcDbScale
 70
     0
300
3/8" = 1'-0"
140
0.375
141
12.0
290
     0
  0
SCALE
  5
62
102
{ACAD_REACTORS
330
47
102
}
330
47
100
AcDbScale
 70
     0
300
1/2" = 1'-0"
140
0.5
141
12.0
290
     0
  0
SCALE
  5
63
102
{ACAD_REACTORS
330
47
102
}
330
47
100
AcDbScale
 70
     0
300
3/4" = 1'-0"
140
0.75
141
12.0
290
     0
  0
SCALE
  5
64
102
{ACAD_REACTORS
330
47
102
}
330
47
100
AcDbScale
 70
     0
300
1" = 1'-0"
140
1.0
141
12.0
290
     0
  0
SCALE
  5
65
102
{ACAD_REACTORS
330
47
102
}
330
47
100
AcDbScale
 70
     0
300
1-1/2" = 1'-0"
140
1.5
141
12.0
290
     0
  0
SCALE
  5
66
102
{ACAD_REACTORS
330
47
102
}
330
47
100
AcDbScale
 70
     0
300
3" = 1'-0"
140
3.0
141
12.0
290
     0
  0
SCALE
  5
67
102
{ACAD_REACTORS
330
47
102
}
330
47
100
AcDbScale
 70
     0
300
6" = 1'-0"
140
6.0
141
12.0
290
     0
  0
SCALE
  5
68
102
{ACAD_REACTORS
330
47
102
}
330
47
100
AcDbScale
 70
     0
300
1'-0" = 1'-0"
140
12.0
141
12.0
290
     0
  0
ENDSEC
  0
EOF
